<svg xmlns="http://www.w3.org/2000/svg" width="160" height="167" viewBox="0 0 160 167" fill="none">
  <mask id="mask0_2127_4444" style="mask-type:luminance" maskUnits="userSpaceOnUse" x="33" y="22" width="93" height="123">
    <path d="M33.8014 34.7794L107.1 22.6188L125.273 132.156L51.9741 144.317L33.8014 34.7794Z" fill="white"/>
  </mask>
  <g mask="url(#mask0_2127_4444)">
    <path d="M77.7427 84.3963L80.4651 85.2587L81.3274 82.5363L78.6051 81.674L77.7427 84.3963Z" fill="#3D816A"/>
    <path d="M74.6777 82.7421L74.6903 82.7462L74.6943 82.7337L74.6817 82.7297L74.6777 82.7421Z" fill="#3D816A"/>
    <path d="M77.4436 80.695L77.4955 80.7116L77.5121 80.6597L77.4602 80.6431L77.4436 80.695Z" fill="#3D816A"/>
    <path d="M80.2514 78.6283L80.2768 78.6362L80.2852 78.6106L80.2594 78.603L80.2514 78.6283Z" fill="#3D816A"/>
    <path d="M78.6887 92.2358L81.9943 93.2829L83.0414 89.9772L79.736 88.9299L78.6887 92.2358Z" fill="#3D816A"/>
    <path d="M78.0561 93.1757L78.0818 93.184L78.0899 93.1585L78.0643 93.1502L78.0561 93.1757Z" fill="#3D816A"/>
    <path d="M72.6135 79.955L72.6392 79.9633L72.647 79.9374L72.6216 79.9295L72.6135 79.955Z" fill="#3D816A"/>
    <path d="M75.4011 77.8971L75.4265 77.905L75.4344 77.8797L75.409 77.8718L75.4011 77.8971Z" fill="#3D816A"/>
    <path d="M77.0317 76.4388L78.8206 77.0055L79.3873 75.2165L77.5984 74.6498L77.0317 76.4388Z" fill="#3D816A"/>
    <path d="M80.9826 73.7777L81.008 73.7856L81.0159 73.7602L80.9903 73.7519L80.9826 73.7777Z" fill="#3D816A"/>
    <path d="M83.0417 76.568L83.0673 76.5764L83.0753 76.551L83.0496 76.5427L83.0417 76.568Z" fill="#3D816A"/>
    <path d="M85.1015 79.359L85.1272 79.3674L85.1355 79.3418L85.1099 79.3334L85.1015 79.359Z" fill="#3D816A"/>
    <path d="M82.9067 93.9066L82.9321 93.9145L82.94 93.8892L82.9147 93.8813L82.9067 93.9066Z" fill="#3D816A"/>
    <path d="M80.1159 95.9665L80.1416 95.9748L80.1494 95.9489L80.1241 95.941L80.1159 95.9665Z" fill="#3D816A"/>
    <path d="M67.7632 79.2235L67.7888 79.2319L67.7969 79.2064L67.7713 79.1981L67.7632 79.2235Z" fill="#3D816A"/>
    <path d="M70.5539 77.164L70.5796 77.1723L70.5874 77.1464L70.562 77.1385L70.5539 77.164Z" fill="#3D816A"/>
    <path d="M73.3445 75.1044L73.3703 75.1121L73.3782 75.0867L73.3528 75.0788L73.3445 75.1044Z" fill="#3D816A"/>
    <path d="M76.1172 73.0573L76.1691 73.0739L76.1856 73.022L76.1338 73.0054L76.1172 73.0573Z" fill="#3D816A"/>
    <path d="M78.9231 70.987L78.9484 70.9949L78.9564 70.9695L78.931 70.9616L78.9231 70.987Z" fill="#3D816A"/>
    <path d="M80.1275 69.7513L82.5647 70.5239L83.3366 68.0865L80.8997 67.3144L80.1275 69.7513Z" fill="#3D816A"/>
    <path d="M83.7653 71.723L83.8039 71.7352L83.8156 71.6969L83.7775 71.6845L83.7653 71.723Z" fill="#3D816A"/>
    <path d="M85.8327 74.5087L85.8584 74.5171L85.8663 74.4917L85.8407 74.4833L85.8327 74.5087Z" fill="#3D816A"/>
    <path d="M87.8886 77.3012L87.9143 77.3095L87.9226 77.2839L87.897 77.2755L87.8886 77.3012Z" fill="#3D816A"/>
    <path d="M80.0139 99.8786L83.3195 100.926L84.367 97.6204L81.0612 96.5728L80.0139 99.8786Z" fill="#3D816A"/>
    <path d="M79.3828 100.813L79.4084 100.821L79.4165 100.796L79.3909 100.788L79.3828 100.813Z" fill="#3D816A"/>
    <path d="M62.9131 78.4928L62.9385 78.5007L62.9466 78.4753L62.9212 78.4674L62.9131 78.4928Z" fill="#3D816A"/>
    <path d="M65.7034 76.4331L65.7289 76.4411L65.737 76.4156L65.7114 76.4075L65.7034 76.4331Z" fill="#3D816A"/>
    <path d="M68.4941 74.3732L68.5196 74.3813L68.5277 74.3558L68.5022 74.3477L68.4941 74.3732Z" fill="#3D816A"/>
    <path d="M71.2849 72.3139L71.3104 72.322L71.3187 72.2963L71.2933 72.2882L71.2849 72.3139Z" fill="#3D816A"/>
    <path d="M74.072 70.2561L74.0979 70.2639L74.1058 70.2385L74.0804 70.2304L74.072 70.2561Z" fill="#3D816A"/>
    <path d="M74.7909 69.2751L77.9667 70.2813L78.9733 67.1054L75.7974 66.0989L74.7909 69.2751Z" fill="#3D816A"/>
    <path d="M77.4972 67.2594L80.803 68.3065L81.8502 65.001L78.5444 63.9538L77.4972 67.2594Z" fill="#3D816A"/>
    <path d="M80.7835 64.9434L83.3373 65.7525L84.1464 63.1987L81.5926 62.3895L80.7835 64.9434Z" fill="#3D816A"/>
    <path d="M83.8133 67.2305L84.8896 67.5717L85.2304 66.4957L84.1548 66.1546L83.8133 67.2305Z" fill="#3D816A"/>
    <path d="M86.2318 69.8356L86.7634 70.0037L86.9317 69.4726L86.4004 69.3038L86.2318 69.8356Z" fill="#3D816A"/>
    <path d="M88.6333 72.447L88.6457 72.4511L88.6498 72.4386L88.6374 72.4345L88.6333 72.447Z" fill="#3D816A"/>
    <path d="M90.6797 75.2418L90.705 75.2498L90.7134 75.2241L90.688 75.2162L90.6797 75.2418Z" fill="#3D816A"/>
    <path d="M92.739 78.0326L92.7643 78.0405L92.7727 78.0149L92.7474 78.007L92.739 78.0326Z" fill="#3D816A"/>
    <path d="M84.2334 101.544L84.259 101.552L84.2671 101.527L84.2415 101.519L84.2334 101.544Z" fill="#3D816A"/>
    <path d="M81.4424 103.604L81.468 103.612L81.4761 103.587L81.4505 103.578L81.4424 103.604Z" fill="#3D816A"/>
    <path d="M78.6521 105.664L78.6775 105.672L78.6856 105.646L78.6602 105.638L78.6521 105.664Z" fill="#3D816A"/>
    <path d="M58.0659 77.7597L58.0914 77.7678L58.0995 77.7423L58.074 77.7342L58.0659 77.7597Z" fill="#3D816A"/>
    <path d="M60.853 75.7021L60.8785 75.7102L60.8866 75.6847L60.8611 75.6766L60.853 75.7021Z" fill="#3D816A"/>
    <path d="M63.6438 73.6423L63.6693 73.6504L63.6774 73.6248L63.6519 73.6167L63.6438 73.6423Z" fill="#3D816A"/>
    <path d="M66.3502 71.6272L66.5057 71.6765L66.5551 71.521L66.3995 71.4717L66.3502 71.6272Z" fill="#3D816A"/>
    <path d="M67.5514 70.3932L70.1182 71.2065L70.9314 68.6397L68.3649 67.8263L67.5514 70.3932Z" fill="#3D816A"/>
    <path d="M69.8561 68.5882L73.1615 69.6357L74.2091 66.3299L70.9032 65.2826L69.8561 68.5882Z" fill="#3D816A"/>
    <path d="M73.005 66.3432L75.7665 67.2179L76.6414 64.4566L73.88 63.5819L73.005 66.3432Z" fill="#3D816A"/>
    <path d="M75.7506 64.3045L78.5771 65.1997L79.4721 62.3738L76.6461 61.4784L75.7506 64.3045Z" fill="#3D816A"/>
    <path d="M79.3561 61.8257L80.9507 62.3309L81.4557 60.7365L79.8611 60.2313L79.3561 61.8257Z" fill="#3D816A"/>
    <path d="M81.0187 60.3494L84.3241 61.397L85.3717 58.0911L82.0658 57.0438L81.0187 60.3494Z" fill="#3D816A"/>
    <path d="M85.1847 62.0471L85.2879 62.0799L85.3208 61.9765L85.2172 61.944L85.1847 62.0471Z" fill="#3D816A"/>
    <path d="M85.1345 65.9327L88.4405 66.9802L89.4876 63.6745L86.1823 62.6271L85.1345 65.9327Z" fill="#3D816A"/>
    <path d="M88.3823 68.1084L89.8864 68.5845L90.3628 67.0809L88.8592 66.6045L88.3823 68.1084Z" fill="#3D816A"/>
    <path d="M91.403 70.3968L91.4413 70.4086L91.4535 70.3701L91.4152 70.3583L91.403 70.3968Z" fill="#3D816A"/>
    <path d="M93.4702 73.1823L93.4955 73.1902L93.5039 73.1646L93.4786 73.1567L93.4702 73.1823Z" fill="#3D816A"/>
    <path d="M95.53 75.9728L95.5554 75.9807L95.5637 75.9551L95.5384 75.9472L95.53 75.9728Z" fill="#3D816A"/>
    <path d="M81.3403 107.516L84.6459 108.563L85.6935 105.258L82.3876 104.21L81.3403 107.516Z" fill="#3D816A"/>
    <path d="M79.9741 108.835L81.1148 109.196L81.4764 108.056L80.3356 107.694L79.9741 108.835Z" fill="#3D816A"/>
    <path d="M77.9211 110.514L77.9465 110.522L77.9546 110.497L77.9292 110.489L77.9211 110.514Z" fill="#3D816A"/>
    <path d="M53.2156 77.0288L53.2411 77.0368L53.2492 77.0113L53.2236 77.0032L53.2156 77.0288Z" fill="#3D816A"/>
    <path d="M56.0063 74.9692L56.0318 74.9773L56.0399 74.9518L56.0144 74.9437L56.0063 74.9692Z" fill="#3D816A"/>
    <path d="M58.7969 72.9094L58.8224 72.9174L58.8305 72.8919L58.8049 72.8839L58.7969 72.9094Z" fill="#3D816A"/>
    <path d="M61.2012 71.0498L61.8104 71.2429L62.0035 70.6336L61.3942 70.4405L61.2012 71.0498Z" fill="#3D816A"/>
    <path d="M62.3874 69.8265L65.4339 70.7918L66.3991 67.7453L63.3526 66.7801L62.3874 69.8265Z" fill="#3D816A"/>
    <path d="M65.7581 67.4662L67.9231 68.1522L68.6089 65.9873L66.4441 65.3013L65.7581 67.4662Z" fill="#3D816A"/>
    <path d="M67.7997 65.7955L71.1056 66.8428L72.1532 63.5369L68.8473 62.4896L67.7997 65.7955Z" fill="#3D816A"/>
    <path d="M72.3908 62.8021L72.9611 62.9829L73.1418 62.4125L72.5715 62.2317L72.3908 62.8021Z" fill="#3D816A"/>
    <path d="M75.3601 60.6526L75.6582 60.7471L75.7526 60.449L75.4545 60.3545L75.3601 60.6526Z" fill="#3D816A"/>
    <path d="M78.3192 58.5043L78.3576 58.5163L78.3699 58.478L78.3315 58.466L78.3192 58.5043Z" fill="#3D816A"/>
    <path d="M81.1275 56.4375L81.1399 56.4416L81.1439 56.429L81.1315 56.425L81.1275 56.4375Z" fill="#3D816A"/>
    <path d="M83.9104 54.383L83.9359 54.3911L83.9438 54.3657L83.9183 54.3576L83.9104 54.383Z" fill="#3D816A"/>
    <path d="M84.1418 58.1221L86.9419 59.0093L87.8294 56.209L85.0288 55.3221L84.1418 58.1221Z" fill="#3D816A"/>
    <path d="M86.4065 60.8048L88.8953 61.5935L89.684 59.1045L87.1951 58.3158L86.4065 60.8048Z" fill="#3D816A"/>
    <path d="M90.0837 62.7541L90.1095 62.7617L90.1174 62.7364L90.0921 62.7284L90.0837 62.7541Z" fill="#3D816A"/>
    <path d="M89.9848 66.6641L93.2908 67.7116L94.3379 64.4058L91.0326 63.3585L89.9848 66.6641Z" fill="#3D816A"/>
    <path d="M94.1865 68.3425L94.2384 68.359L94.255 68.3072L94.2031 68.2906L94.1865 68.3425Z" fill="#3D816A"/>
    <path d="M96.2629 71.1256L96.2885 71.134L96.2969 71.1084L96.2708 71.1003L96.2629 71.1256Z" fill="#3D816A"/>
    <path d="M98.3208 73.9132L98.3461 73.9212L98.3545 73.8955L98.3291 73.8876L98.3208 73.9132Z" fill="#3D816A"/>
    <path d="M80.6094 112.367L83.9152 113.414L84.9625 110.108L81.6566 109.061L80.6094 112.367Z" fill="#3D816A"/>
    <path d="M77.8188 114.426L81.1247 115.474L82.172 112.168L78.8664 111.121L77.8188 114.426Z" fill="#3D816A"/>
    <path d="M77.188 115.361L77.2134 115.369L77.2215 115.344L77.1961 115.336L77.188 115.361Z" fill="#3D816A"/>
    <path d="M48.3652 76.2978L48.3907 76.3059L48.3988 76.2804L48.3733 76.2723L48.3652 76.2978Z" fill="#3D816A"/>
    <path d="M51.1558 74.2382L51.1813 74.2463L51.1893 74.2208L51.1638 74.2127L51.1558 74.2382Z" fill="#3D816A"/>
    <path d="M53.9544 72.1731L53.9669 72.1771L53.9709 72.1646L53.9584 72.1606L53.9544 72.1731Z" fill="#3D816A"/>
    <path d="M56.7471 70.1168L56.7596 70.1208L56.7636 70.1082L56.7511 70.1042L56.7471 70.1168Z" fill="#3D816A"/>
    <path d="M57.4184 69.1538L60.6463 70.1766L61.669 66.9486L58.4411 65.9259L57.4184 69.1538Z" fill="#3D816A"/>
    <path d="M60.1662 67.1191L63.459 68.1624L64.5022 64.8696L61.2095 63.8263L60.1662 67.1191Z" fill="#3D816A"/>
    <path d="M65.0834 63.9574L65.1479 63.9779L65.1683 63.9134L65.1038 63.8929L65.0834 63.9574Z" fill="#3D816A"/>
    <path d="M65.7399 63.005L69.0458 64.0522L70.0929 60.7466L66.7875 59.6991L65.7399 63.005Z" fill="#3D816A"/>
    <path d="M70.4155 59.9676L70.8563 60.1072L70.9958 59.6665L70.555 59.5268L70.4155 59.9676Z" fill="#3D816A"/>
    <path d="M73.4898 57.764L73.5022 57.768L73.5062 57.7554L73.4938 57.7514L73.4898 57.764Z" fill="#3D816A"/>
    <path d="M76.245 55.724L76.3092 55.7446L76.3297 55.6801L76.265 55.6598L76.245 55.724Z" fill="#3D816A"/>
    <path d="M78.9305 53.7178L79.1509 53.7876L79.2207 53.5672L79.0003 53.4974L78.9305 53.7178Z" fill="#3D816A"/>
    <path d="M81.8508 51.5922L81.8763 51.6004L81.8842 51.575L81.8587 51.5668L81.8508 51.5922Z" fill="#3D816A"/>
    <path d="M84.6411 49.5329L84.667 49.5408L84.6749 49.5153L84.6494 49.5072L84.6411 49.5329Z" fill="#3D816A"/>
    <path d="M86.6935 52.3286L86.7319 52.3406L86.7437 52.3025L86.7058 52.2902L86.6935 52.3286Z" fill="#3D816A"/>
    <path d="M86.6341 56.2161L89.8882 57.2469L90.9188 53.9933L87.6652 52.9622L86.6341 56.2161Z" fill="#3D816A"/>
    <path d="M89.8934 58.3828L91.3198 58.8344L91.7716 57.4084L90.3457 56.9566L89.8934 58.3828Z" fill="#3D816A"/>
    <path d="M92.85 60.7062L92.9147 60.7266L92.9352 60.6621L92.8705 60.6417L92.85 60.7062Z" fill="#3D816A"/>
    <path d="M94.9096 63.4969L94.9743 63.5173L94.995 63.4531L94.9303 63.4327L94.9096 63.4969Z" fill="#3D816A"/>
    <path d="M96.9939 66.2753L97.0195 66.2837L97.0274 66.2583L97.0018 66.2499L96.9939 66.2753Z" fill="#3D816A"/>
    <path d="M99.0534 69.0661L99.0791 69.0744L99.0874 69.0488L99.0614 69.0407L99.0534 69.0661Z" fill="#3D816A"/>
    <path d="M101.111 71.8532L101.137 71.8615L101.145 71.8359L101.119 71.8276L101.111 71.8532Z" fill="#3D816A"/>
    <path d="M79.8762 117.213L83.182 118.261L84.2293 114.955L80.9237 113.908L79.8762 117.213Z" fill="#3D816A"/>
    <path d="M77.0857 119.273L80.3912 120.32L81.4385 117.014L78.133 115.967L77.0857 119.273Z" fill="#3D816A"/>
    <path d="M76.457 120.211L76.4827 120.22L76.4905 120.194L76.4651 120.186L76.457 120.211Z" fill="#3D816A"/>
    <path d="M43.5262 75.5592L43.5387 75.5632L43.5427 75.5506L43.5301 75.5466L43.5262 75.5592Z" fill="#3D816A"/>
    <path d="M46.3054 73.5073L46.331 73.5153L46.339 73.4898L46.3135 73.4817L46.3054 73.5073Z" fill="#3D816A"/>
    <path d="M49.1041 71.442L49.1166 71.4459L49.1206 71.4334L49.108 71.4294L49.1041 71.442Z" fill="#3D816A"/>
    <path d="M51.8867 69.3876L51.9122 69.3957L51.9203 69.3702L51.8948 69.3621L51.8867 69.3876Z" fill="#3D816A"/>
    <path d="M54.67 67.3332L54.7083 67.3454L54.7204 67.307L54.6822 67.2949L54.67 67.3332Z" fill="#3D816A"/>
    <path d="M55.6008 66.239L58.4657 67.1467L59.3735 64.2818L56.5085 63.374L55.6008 66.239Z" fill="#3D816A"/>
    <path d="M58.127 64.3193L61.3938 65.3543L62.4289 62.0875L59.1621 61.0524L58.127 64.3193Z" fill="#3D816A"/>
    <path d="M60.9667 62.235L64.1557 63.2453L65.1659 60.0564L61.9771 59.0459L60.9667 62.235Z" fill="#3D816A"/>
    <path d="M65.4656 59.2914L66.0618 59.4804L66.251 58.8839L65.6544 58.6952L65.4656 59.2914Z" fill="#3D816A"/>
    <path d="M68.6051 57.0473L68.6698 57.0677L68.6903 57.0031L68.6256 56.9827L68.6051 57.0473Z" fill="#3D816A"/>
    <path d="M74.2129 52.9191L74.2383 52.9272L74.2467 52.9016L74.2212 52.8935L74.2129 52.9191Z" fill="#3D816A"/>
    <path d="M77 50.8615L77.0259 50.8694L77.0338 50.844L77.0083 50.8359L77 50.8615Z" fill="#3D816A"/>
    <path d="M79.7989 48.7962L79.8113 48.8003L79.8153 48.7877L79.8025 48.7839L79.7989 48.7962Z" fill="#3D816A"/>
    <path d="M82.5894 46.7369L82.6023 46.7407L82.6063 46.7281L82.5934 46.7243L82.5894 46.7369Z" fill="#3D816A"/>
    <path d="M85.3819 44.6807L85.3948 44.6845L85.3988 44.6719L85.3859 44.6681L85.3819 44.6807Z" fill="#3D816A"/>
    <path d="M87.3642 47.5101L87.4936 47.5509L87.5341 47.422L87.4052 47.3811L87.3642 47.5101Z" fill="#3D816A"/>
    <path d="M89.3022 50.3613L89.6135 50.4598L89.7119 50.1487L89.4006 50.0502L89.3022 50.3613Z" fill="#3D816A"/>
    <path d="M89.5789 54.0784L92.5994 55.0355L93.5567 52.0148L90.5362 51.0578L89.5789 54.0784Z" fill="#3D816A"/>
    <path d="M93.2494 56.0331L93.8197 56.2139L94.0004 55.6435L93.4301 55.4627L93.2494 56.0331Z" fill="#3D816A"/>
    <path d="M95.2073 58.8749L95.9334 59.1049L96.1634 58.379L95.4372 58.1491L95.2073 58.8749Z" fill="#3D816A"/>
    <path d="M95.6435 62.5055L98.8326 63.5159L99.8426 60.3271L96.6539 59.3164L95.6435 62.5055Z" fill="#3D816A"/>
    <path d="M99.7849 64.2155L99.8105 64.2238L99.8182 64.198L99.7928 64.1901L99.7849 64.2155Z" fill="#3D816A"/>
    <path d="M101.844 67.0062L101.87 67.0146L101.878 66.9888L101.852 66.9809L101.844 67.0062Z" fill="#3D816A"/>
    <path d="M103.9 69.7992L103.926 69.8071L103.934 69.7815L103.909 69.7736L103.9 69.7992Z" fill="#3D816A"/>
    <path d="M105.958 72.5863L105.984 72.5944L105.992 72.5686L105.966 72.5607L105.958 72.5863Z" fill="#3D816A"/>
    <path d="M79.4026 121.93L82.3194 122.854L83.2435 119.937L80.3267 119.013L79.4026 121.93Z" fill="#3D816A"/>
    <path d="M78.5166 123.002L78.5422 123.011L78.5501 122.985L78.5247 122.977L78.5166 123.002Z" fill="#3D816A"/>
    <path d="M41.4666 72.7686L41.4791 72.7726L41.4831 72.7601L41.4706 72.7561L41.4666 72.7686Z" fill="#3D816A"/>
    <path d="M44.2493 70.7143L44.2748 70.7224L44.2828 70.6969L44.2573 70.6888L44.2493 70.7143Z" fill="#3D816A"/>
    <path d="M47.0364 68.6567L47.0619 68.6648L47.07 68.6393L47.0444 68.6312L47.0364 68.6567Z" fill="#3D816A"/>
    <path d="M49.8271 66.5971L49.8527 66.6052L49.8607 66.5797L49.8352 66.5716L49.8271 66.5971Z" fill="#3D816A"/>
    <path d="M51.6119 65.0609L53.1675 65.5538L53.6604 63.9982L52.1048 63.5053L51.6119 65.0609Z" fill="#3D816A"/>
    <path d="M53.3889 63.5299L56.4872 64.5116L57.4689 61.4133L54.3706 60.4316L53.3889 63.5299Z" fill="#3D816A"/>
    <path d="M56.1273 61.4968L59.3034 62.5031L60.3097 59.327L57.1337 58.3207L56.1273 61.4968Z" fill="#3D816A"/>
    <path d="M58.8297 59.4832L62.1355 60.5306L63.1828 57.2249L59.8771 56.1775L58.8297 59.4832Z" fill="#3D816A"/>
    <path d="M63.7788 56.3039L63.8043 56.312L63.8126 56.2863L63.7871 56.2782L63.7788 56.3039Z" fill="#3D816A"/>
    <path d="M66.5698 54.2443L66.5953 54.2524L66.6036 54.2268L66.5782 54.2187L66.5698 54.2443Z" fill="#3D816A"/>
    <path d="M69.3625 52.1882L69.388 52.1963L69.3964 52.1706L69.3709 52.1625L69.3625 52.1882Z" fill="#3D816A"/>
    <path d="M72.1612 50.1231L72.1741 50.1269L72.1776 50.1146L72.1652 50.1105L72.1612 50.1231Z" fill="#3D816A"/>
    <path d="M74.9438 48.0688L74.9693 48.0769L74.9777 48.0512L74.9517 48.0434L74.9438 48.0688Z" fill="#3D816A"/>
    <path d="M77.7425 46.0034L77.7549 46.0075L77.7589 45.9949L77.7465 45.9909L77.7425 46.0034Z" fill="#3D816A"/>
    <path d="M88.1727 42.6209L88.1855 42.6247L88.1891 42.6124L88.1767 42.6083L88.1727 42.6209Z" fill="#3D816A"/>
    <path d="M90.2224 45.4135L90.2479 45.4216L90.2562 45.396L90.2308 45.3879L90.2224 45.4135Z" fill="#3D816A"/>
    <path d="M92.2114 48.2431L92.3403 48.284L92.3813 48.1549L92.2524 48.114L92.2114 48.2431Z" fill="#3D816A"/>
    <path d="M92.4186 51.9942L95.3614 52.9265L96.2936 49.9839L93.3508 49.0515L92.4186 51.9942Z" fill="#3D816A"/>
    <path d="M95.2986 54.3568L96.9968 54.8949L97.5349 53.1966L95.8367 52.6585L95.2986 54.3568Z" fill="#3D816A"/>
    <path d="M98.4656 56.5728L98.4785 56.5766L98.4825 56.564L98.4696 56.5602L98.4656 56.5728Z" fill="#3D816A"/>
    <path d="M100.516 59.3656L100.541 59.3733L100.549 59.3479L100.524 59.34L100.516 59.3656Z" fill="#3D816A"/>
    <path d="M102.575 62.1559L102.601 62.1638L102.609 62.1385L102.583 62.1305L102.575 62.1559Z" fill="#3D816A"/>
    <path d="M104.631 64.9489L104.657 64.9568L104.665 64.9312L104.639 64.9235L104.631 64.9489Z" fill="#3D816A"/>
    <path d="M106.691 67.7394L106.716 67.7473L106.725 67.7217L106.7 67.7138L106.691 67.7394Z" fill="#3D816A"/>
    <path d="M42.1897 67.9235L42.2152 67.9316L42.2233 67.9061L42.1978 67.898L42.1897 67.9235Z" fill="#3D816A"/>
    <path d="M44.9824 65.8674L45.0079 65.8755L45.016 65.8499L44.9905 65.8419L44.9824 65.8674Z" fill="#3D816A"/>
    <path d="M46.2435 64.6021L48.5899 65.3456L49.3333 62.9992L46.9869 62.2557L46.2435 64.6021Z" fill="#3D816A"/>
    <path d="M50.1173 61.9802L50.8173 62.202L51.0391 61.5019L50.3391 61.2802L50.1173 61.9802Z" fill="#3D816A"/>
    <path d="M53.0451 59.8496L53.5377 60.0058L53.6938 59.5131L53.2012 59.3571L53.0451 59.8496Z" fill="#3D816A"/>
    <path d="M55.5542 57.937L56.4746 58.2286L56.7662 57.3082L55.8458 57.0166L55.5542 57.937Z" fill="#3D816A"/>
    <path d="M56.7701 56.6927L60.0759 57.74L61.1233 54.4343L57.8175 53.387L56.7701 56.6927Z" fill="#3D816A"/>
    <path d="M61.7329 53.5096L61.7454 53.5136L61.7494 53.501L61.737 53.497L61.7329 53.5096Z" fill="#3D816A"/>
    <path d="M64.5028 51.4585L64.5408 51.4708L64.5531 51.4324L64.5146 51.4203L64.5028 51.4585Z" fill="#3D816A"/>
    <path d="M67.2787 49.4099L67.3429 49.4305L67.3634 49.3659L67.2992 49.3453L67.2787 49.4099Z" fill="#3D816A"/>
    <path d="M70.1014 47.3323L70.1138 47.3364L70.1178 47.3238L70.1054 47.3198L70.1014 47.3323Z" fill="#3D816A"/>
    <path d="M93.0198 43.3538L93.0323 43.3579L93.0363 43.3453L93.0238 43.3412L93.0198 43.3538Z" fill="#3D816A"/>
    <path d="M93.3915 47.0197L95.9716 47.8369L96.7889 45.2572L94.2092 44.4399L93.3915 47.0197Z" fill="#3D816A"/>
    <path d="M97.1294 48.937L97.1548 48.9451L97.1628 48.9197L97.1373 48.9116L97.1294 48.937Z" fill="#3D816A"/>
    <path d="M97.9091 52.3925L99.8794 53.0169L100.504 51.0463L98.5331 50.4222L97.9091 52.3925Z" fill="#3D816A"/>
    <path d="M101.368 58.3156L104.336 59.2565L105.277 56.2878L102.308 55.347L101.368 58.3156Z" fill="#3D816A"/>
    <path d="M105.363 60.0983L105.388 60.1062L105.396 60.0809L105.371 60.0729L105.363 60.0983Z" fill="#3D816A"/>
    <path d="M42.9132 63.0783L42.9514 63.0904L42.9636 63.0522L42.9253 63.0401L42.9132 63.0783Z" fill="#3D816A"/>
    <path d="M45.7134 61.017L45.7389 61.0251L45.747 60.9996L45.7214 60.9915L45.7134 61.017Z" fill="#3D816A"/>
    <path d="M48.5007 58.9594L48.5262 58.9675L48.5343 58.942L48.5088 58.9339L48.5007 58.9594Z" fill="#3D816A"/>
    <path d="M49.2024 57.9853L52.4044 58.9998L53.4189 55.7978L50.217 54.7833L49.2024 57.9853Z" fill="#3D816A"/>
    <path d="M54.082 54.84L54.1075 54.8481L54.1156 54.8226L54.0901 54.8145L54.082 54.84Z" fill="#3D816A"/>
    <path d="M54.8324 53.8415L57.9566 54.8313L58.9464 51.7072L55.8223 50.7172L54.8324 53.8415Z" fill="#3D816A"/>
    <path d="M59.6732 50.7186L59.6856 50.7226L59.6896 50.71L59.6772 50.706L59.6732 50.7186Z" fill="#3D816A"/>
    <path d="M65.251 46.6014L65.2635 46.6054L65.2675 46.5928L65.255 46.5888L65.251 46.6014Z" fill="#3D816A"/>
    <path d="M73.6253 40.4259L73.6377 40.4299L73.6417 40.4173L73.6293 40.4133L73.6253 40.4259Z" fill="#3D816A"/>
    <path d="M76.4161 38.366L76.4285 38.3701L76.4325 38.3575L76.4201 38.3534L76.4161 38.366Z" fill="#3D816A"/>
    <path d="M79.2032 36.3084L79.2156 36.3125L79.2196 36.2999L79.2072 36.2958L79.2032 36.3084Z" fill="#3D816A"/>
    <path d="M81.9937 34.2486L82.0061 34.2527L82.0102 34.2401L81.9977 34.236L81.9937 34.2486Z" fill="#3D816A"/>
    <path d="M84.7618 32.2048L84.8136 32.2214L84.8302 32.1694L84.7779 32.1531L84.7618 32.2048Z" fill="#3D816A"/>
    <path d="M95.8104 41.2938L95.8228 41.2978L95.8268 41.2852L95.8139 41.2814L95.8104 41.2938Z" fill="#3D816A"/>
    <path d="M97.8603 44.0866L97.8858 44.0948L97.8937 44.0694L97.8682 44.0612L97.8603 44.0866Z" fill="#3D816A"/>
    <path d="M99.9199 46.8774L99.9454 46.8855L99.9533 46.8601L99.9278 46.852L99.9199 46.8774Z" fill="#3D816A"/>
    <path d="M101.98 49.6679L102.005 49.676L102.014 49.6504L101.988 49.6425L101.98 49.6679Z" fill="#3D816A"/>
    <path d="M103.379 52.8004L104.403 53.1248L104.728 52.1008L103.703 51.7764L103.379 52.8004Z" fill="#3D816A"/>
    <path d="M106.096 55.2511L106.121 55.2595L106.129 55.2341L106.104 55.2258L106.096 55.2511Z" fill="#3D816A"/>
    <path d="M40.8628 60.2861L40.8883 60.2942L40.8964 60.2686L40.8709 60.2605L40.8628 60.2861Z" fill="#3D816A"/>
    <path d="M43.6538 58.2263L43.6793 58.2343L43.6874 58.2088L43.6619 58.2008L43.6538 58.2263Z" fill="#3D816A"/>
    <path d="M44.8134 57.0122L47.3154 57.8049L48.1081 55.3029L45.6061 54.5102L44.8134 57.0122Z" fill="#3D816A"/>
    <path d="M48.9781 54.2419L49.3929 54.3734L49.5244 53.9586L49.1095 53.8271L48.9781 54.2419Z" fill="#3D816A"/>
    <path d="M52.0323 52.0476L52.0448 52.0516L52.0488 52.0391L52.0362 52.0351L52.0323 52.0476Z" fill="#3D816A"/>
    <path d="M54.2781 50.269L55.1207 50.536L55.3877 49.6934L54.5451 49.4263L54.2781 50.269Z" fill="#3D816A"/>
    <path d="M65.9842 41.7545L65.9966 41.7585L66.0006 41.7459L65.9882 41.7419L65.9842 41.7545Z" fill="#3D816A"/>
    <path d="M68.775 39.6949L68.7874 39.6989L68.7914 39.6864L68.779 39.6823L68.775 39.6949Z" fill="#3D816A"/>
    <path d="M71.548 37.6423L71.5864 37.6543L71.5982 37.6162L71.5603 37.6039L71.548 37.6423Z" fill="#3D816A"/>
    <path d="M74.3314 35.5881L74.3837 35.6044L74.3997 35.5527L74.3479 35.5362L74.3314 35.5881Z" fill="#3D816A"/>
    <path d="M77.0957 33.546L77.1862 33.5746L77.2146 33.4843L77.1246 33.4555L77.0957 33.546Z" fill="#3D816A"/>
    <path d="M98.6011 39.2342L98.6136 39.2382L98.6176 39.2257L98.6047 39.2219L98.6011 39.2342Z" fill="#3D816A"/>
    <path d="M100.661 42.0252L100.673 42.0292L100.677 42.0167L100.665 42.0126L100.661 42.0252Z" fill="#3D816A"/>
    <path d="M102.711 44.8176L102.736 44.8257L102.744 44.8003L102.719 44.7922L102.711 44.8176Z" fill="#3D816A"/>
    <path d="M104.771 47.6083L104.796 47.6164L104.804 47.591L104.778 47.5829L104.771 47.6083Z" fill="#3D816A"/>
    <path d="M41.594 55.4357L41.6195 55.4438L41.6276 55.4183L41.6021 55.4102L41.594 55.4357Z" fill="#3D816A"/>
    <path d="M44.3946 53.3741L44.4071 53.3781L44.4111 53.3655L44.3986 53.3615L44.3946 53.3741Z" fill="#3D816A"/>
    <path d="M46.9524 51.4372L47.3154 51.5522L47.4304 51.1892L47.0674 51.0742L46.9524 51.4372Z" fill="#3D816A"/>
    <path d="M52.7632 47.1969L52.7758 47.2008L52.7797 47.1883L52.7672 47.1843L52.7632 47.1969Z" fill="#3D816A"/>
    <path d="M55.5535 45.1375L55.5664 45.1413L55.5704 45.1287L55.5575 45.1249L55.5535 45.1375Z" fill="#3D816A"/>
    <path d="M58.3465 43.0813L58.3593 43.0851L58.3634 43.0726L58.3505 43.0688L58.3465 43.0813Z" fill="#3D816A"/>
    <path d="M61.1198 41.0283L61.1577 41.0406L61.17 41.0022L61.1316 40.9902L61.1198 41.0283Z" fill="#3D816A"/>
    <path d="M63.8995 38.9768L63.9517 38.993L63.9678 38.9413L63.916 38.9249L63.8995 38.9768Z" fill="#3D816A"/>
    <path d="M66.6827 36.9218L66.7474 36.9421L66.7679 36.8776L66.7032 36.8573L66.6827 36.9218Z" fill="#3D816A"/>
    <path d="M69.4563 34.8693L69.5467 34.8978L69.5752 34.8075L69.4852 34.7787L69.4563 34.8693Z" fill="#3D816A"/>
    <path d="M101.391 37.1746L101.404 37.1784L101.408 37.1658L101.395 37.162L101.391 37.1746Z" fill="#3D816A"/>
    <path d="M103.451 39.9654L103.464 39.9694L103.468 39.9569L103.455 39.9528L103.451 39.9654Z" fill="#3D816A"/>
    <path d="M39.544 52.6431L39.5566 52.6471L39.5605 52.6345L39.548 52.6306L39.544 52.6431Z" fill="#3D816A"/>
    <path d="M47.9163 46.4639L47.9289 46.4679L47.9329 46.4553L47.9203 46.4514L47.9163 46.4639Z" fill="#3D816A"/>
    <path d="M50.6788 44.419L50.7307 44.4354L50.7471 44.3835L50.6952 44.367L50.6788 44.419Z" fill="#3D816A"/>
    <path d="M53.4615 42.3644L53.5262 42.3847L53.5467 42.3202L53.482 42.2999L53.4615 42.3644Z" fill="#3D816A"/>
    <path d="M56.2265 40.3225L56.3296 40.3552L56.3626 40.2519L56.259 40.2194L56.2265 40.3225Z" fill="#3D816A"/>
    <path d="M58.9928 38.2749L59.1344 38.3201L59.1794 38.1781L59.0378 38.133L58.9928 38.2749Z" fill="#3D816A"/>
    <path d="M40.2752 47.7928L40.2878 47.7968L40.2917 47.7842L40.2792 47.7802L40.2752 47.7928Z" fill="#3D816A"/>
    <path d="M43.0501 45.7436L43.0884 45.7557L43.1006 45.7174L43.0623 45.7053L43.0501 45.7436Z" fill="#3D816A"/>
    <path d="M45.7961 43.7053L45.8993 43.738L45.932 43.6348L45.8288 43.602L45.7961 43.7053Z" fill="#3D816A"/>
    <path d="M48.5514 41.6656L48.707 41.7149L48.7563 41.5593L48.6007 41.51L48.5514 41.6656Z" fill="#3D816A"/>
    <path d="M51.3421 39.6057L51.4977 39.6551L51.5471 39.4994L51.3914 39.4502L51.3421 39.6057Z" fill="#3D816A"/>
    <path d="M40.9211 42.9866L41.063 43.0315L41.108 42.8896L40.966 42.8446L40.9211 42.9866Z" fill="#3D816A"/>
  </g>
</svg>