<svg xmlns="http://www.w3.org/2000/svg" width="155" height="198" viewBox="0 0 155 198" fill="none">
  <path d="M56.3499 119.56L60.5898 124.196L65.2294 119.96L60.9895 115.324L56.3499 119.56Z" fill="#3D816A"/>
  <path d="M52.3279 113.04L52.3477 113.062L52.3695 113.043L52.3495 113.021L52.3279 113.04Z" fill="#3D816A"/>
  <path d="M59.8525 112.183L59.9332 112.272L60.0219 112.191L59.9412 112.103L59.8525 112.183Z" fill="#3D816A"/>
  <path d="M67.479 111.335L67.5193 111.379L67.5642 111.338L67.5228 111.295L67.479 111.335Z" fill="#3D816A"/>
  <path d="M49.5254 135.528L54.6738 141.157L60.3076 136.013L55.1596 130.385L49.5254 135.528Z" fill="#3D816A"/>
  <path d="M47.2856 136.624L47.3261 136.669L47.3704 136.628L47.33 136.583L47.2856 136.624Z" fill="#3D816A"/>
  <path d="M51.4612 105.464L51.5017 105.508L51.546 105.467L51.5055 105.423L51.4612 105.464Z" fill="#3D816A"/>
  <path d="M59.0383 104.61L59.0786 104.654L59.1224 104.613L59.0821 104.57L59.0383 104.61Z" fill="#3D816A"/>
  <path d="M63.7517 103.625L66.538 106.671L69.5869 103.887L66.8006 100.841L63.7517 103.625Z" fill="#3D816A"/>
  <path d="M74.2102 102.902L74.2505 102.946L74.2943 102.905L74.254 102.861L74.2102 102.902Z" fill="#3D816A"/>
  <path d="M75.0649 110.48L75.1053 110.525L75.149 110.484L75.1087 110.439L75.0649 110.48Z" fill="#3D816A"/>
  <path d="M75.9197 118.059L75.96 118.104L76.0049 118.063L75.9646 118.019L75.9197 118.059Z" fill="#3D816A"/>
  <path d="M55.7266 143.349L55.767 143.393L55.8108 143.352L55.7704 143.309L55.7266 143.349Z" fill="#3D816A"/>
  <path d="M48.1406 144.203L48.181 144.248L48.2253 144.206L48.185 144.163L48.1406 144.203Z" fill="#3D816A"/>
  <path d="M43.0203 98.7388L43.0607 98.7836L43.1049 98.7434L43.0645 98.6985L43.0203 98.7388Z" fill="#3D816A"/>
  <path d="M50.6062 97.8848L50.6466 97.9296L50.6909 97.8882L50.6504 97.8445L50.6062 97.8848Z" fill="#3D816A"/>
  <path d="M58.1917 97.031L58.2331 97.0747L58.2769 97.0345L58.2366 96.9907L58.1917 97.031Z" fill="#3D816A"/>
  <path d="M65.7292 96.1807L65.8099 96.2693L65.8986 96.1887L65.8179 96.1001L65.7292 96.1807Z" fill="#3D816A"/>
  <path d="M73.3557 95.3232L73.396 95.367L73.4398 95.3267L73.3995 95.283L73.3557 95.3232Z" fill="#3D816A"/>
  <path d="M77.0117 94.2932L80.807 98.444L84.9606 94.6511L81.1653 90.5017L77.0117 94.2932Z" fill="#3D816A"/>
  <path d="M81.7756 102.05L81.8367 102.116L81.9023 102.055L81.8424 101.989L81.7756 102.05Z" fill="#3D816A"/>
  <path d="M82.6511 109.626L82.6914 109.671L82.7352 109.631L82.6949 109.586L82.6511 109.626Z" fill="#3D816A"/>
  <path d="M83.4966 117.205L83.5369 117.25L83.5818 117.209L83.5415 117.165L83.4966 117.205Z" fill="#3D816A"/>
  <path d="M43.6404 151.54L48.7887 157.168L54.4229 152.025L49.2746 146.396L43.6404 151.54Z" fill="#3D816A"/>
  <path d="M41.4094 152.626L41.4499 152.671L41.4941 152.631L41.4537 152.586L41.4094 152.626Z" fill="#3D816A"/>
  <path d="M34.5793 92.0149L34.6198 92.0586L34.664 92.0183L34.6236 91.9746L34.5793 92.0149Z" fill="#3D816A"/>
  <path d="M42.1653 91.1603L42.2057 91.2045L42.2499 91.1641L42.2095 91.1199L42.1653 91.1603Z" fill="#3D816A"/>
  <path d="M49.7515 90.3063L49.7919 90.3504L49.8361 90.3101L49.7957 90.2659L49.7515 90.3063Z" fill="#3D816A"/>
  <path d="M57.3369 89.4523L57.3772 89.4964L57.4221 89.4561L57.3818 89.4119L57.3369 89.4523Z" fill="#3D816A"/>
  <path d="M64.9138 88.598L64.9553 88.6422L64.9991 88.6018L64.9587 88.5576L64.9138 88.598Z" fill="#3D816A"/>
  <path d="M67.3638 87.5197L72.3098 92.9273L77.7235 87.9861L72.7774 82.5779L67.3638 87.5197Z" fill="#3D816A"/>
  <path d="M74.7402 86.6567L79.889 92.2852L85.5226 87.1421L80.3739 81.5132L74.7402 86.6567Z" fill="#3D816A"/>
  <path d="M83.553 85.8594L87.5303 90.208L91.8831 86.2344L87.9058 81.8857L83.553 85.8594Z" fill="#3D816A"/>
  <path d="M86.8115 93.5453L88.4874 95.3784L90.3212 93.7041L88.6464 91.8721L86.8115 93.5453Z" fill="#3D816A"/>
  <path d="M88.5542 101.166L89.3824 102.07L90.2877 101.244L89.4607 100.338L88.5542 101.166Z" fill="#3D816A"/>
  <path d="M90.2578 108.779L90.2774 108.801L90.2993 108.781L90.2797 108.76L90.2578 108.779Z" fill="#3D816A"/>
  <path d="M91.0825 116.351L91.1228 116.395L91.1678 116.355L91.1274 116.311L91.0825 116.351Z" fill="#3D816A"/>
  <path d="M91.9373 123.93L91.9776 123.974L92.0225 123.933L91.9822 123.89L91.9373 123.93Z" fill="#3D816A"/>
  <path d="M49.8503 159.351L49.8908 159.396L49.935 159.356L49.8946 159.311L49.8503 159.351Z" fill="#3D816A"/>
  <path d="M42.2644 160.205L42.3048 160.25L42.3491 160.21L42.3086 160.165L42.2644 160.205Z" fill="#3D816A"/>
  <path d="M34.6785 161.06L34.7189 161.104L34.7631 161.064L34.7228 161.02L34.6785 161.06Z" fill="#3D816A"/>
  <path d="M26.1477 85.2897L26.1881 85.3338L26.2324 85.2935L26.1919 85.2493L26.1477 85.2897Z" fill="#3D816A"/>
  <path d="M33.7246 84.4356L33.765 84.4798L33.8093 84.4395L33.7688 84.3953L33.7246 84.4356Z" fill="#3D816A"/>
  <path d="M41.3105 83.5814L41.351 83.6256L41.3953 83.5852L41.3549 83.541L41.3105 83.5814Z" fill="#3D816A"/>
  <path d="M48.687 82.7186L48.9292 82.9835L49.1944 82.7415L48.9522 82.4766L48.687 82.7186Z" fill="#3D816A"/>
  <path d="M52.334 81.6895L56.3315 86.0603L60.7062 82.0665L56.7093 77.6958L52.334 81.6895Z" fill="#3D816A"/>
  <path d="M58.7134 80.786L63.861 86.4149L69.4958 81.2715L64.347 75.6426L58.7134 80.786Z" fill="#3D816A"/>
  <path d="M67.1863 79.9726L71.4873 84.6744L76.1937 80.378L71.8927 75.6763L67.1863 79.9726Z" fill="#3D816A"/>
  <path d="M74.6631 79.1096L79.0654 83.9218L83.8813 79.5246L79.4801 74.7124L74.6631 79.1096Z" fill="#3D816A"/>
  <path d="M84.2637 78.353L86.747 81.0681L89.4642 78.5872L86.9809 75.8721L84.2637 78.353Z" fill="#3D816A"/>
  <path d="M89.0576 77.3698L94.2052 82.9988L99.84 77.8552L94.6913 72.2263L89.0576 77.3698Z" fill="#3D816A"/>
  <path d="M95.1289 85.1836L95.2902 85.3602L95.4676 85.1989L95.3051 85.0222L95.1289 85.1836Z" fill="#3D816A"/>
  <path d="M90.7578 92.527L95.9066 98.1565L101.54 93.0126L96.3926 87.384L90.7578 92.527Z" fill="#3D816A"/>
  <path d="M94.5542 100.24L96.897 102.801L99.4599 100.461L97.1182 97.9009L94.5542 100.24Z" fill="#3D816A"/>
  <path d="M97.7932 107.921L97.8543 107.986L97.9211 107.925L97.86 107.86L97.7932 107.921Z" fill="#3D816A"/>
  <path d="M98.6685 115.497L98.7088 115.541L98.7537 115.501L98.7134 115.457L98.6685 115.497Z" fill="#3D816A"/>
  <path d="M99.5232 123.076L99.5635 123.12L99.6084 123.079L99.5681 123.036L99.5232 123.076Z" fill="#3D816A"/>
  <path d="M37.7642 167.542L42.9124 173.171L48.5468 168.028L43.3984 162.398L37.7642 167.542Z" fill="#3D816A"/>
  <path d="M33.7087 168.552L35.4855 170.494L37.4298 168.72L35.6531 166.777L33.7087 168.552Z" fill="#3D816A"/>
  <path d="M27.9473 169.493L27.9877 169.537L28.0319 169.496L27.9915 169.453L27.9473 169.493Z" fill="#3D816A"/>
  <path d="M17.7068 78.5648L17.7472 78.609L17.7914 78.5686L17.751 78.5244L17.7068 78.5648Z" fill="#3D816A"/>
  <path d="M25.2927 77.7108L25.3331 77.755L25.3774 77.7146L25.337 77.6704L25.2927 77.7108Z" fill="#3D816A"/>
  <path d="M32.8787 76.8568L32.9191 76.901L32.9633 76.8606L32.9229 76.8164L32.8787 76.8568Z" fill="#3D816A"/>
  <path d="M39.5078 75.9585L40.4567 76.996L41.4952 76.048L40.5463 75.0105L39.5078 75.9585Z" fill="#3D816A"/>
  <path d="M43.1147 74.9332L47.8593 80.1207L53.0516 75.3806L48.307 70.1931L43.1147 74.9332Z" fill="#3D816A"/>
  <path d="M52.137 74.1443L55.5086 77.8307L59.1983 74.4622L55.8269 70.7759L52.137 74.1443Z" fill="#3D816A"/>
  <path d="M57.8669 73.2073L63.0157 78.8362L68.6505 73.6926L63.5018 68.0637L57.8669 73.2073Z" fill="#3D816A"/>
  <path d="M69.9116 72.5548L70.7997 73.526L71.7718 72.6386L70.8838 71.6672L69.9116 72.5548Z" fill="#3D816A"/>
  <path d="M77.9377 71.7255L78.4019 72.2331L78.9099 71.7692L78.4457 71.2615L77.9377 71.7255Z" fill="#3D816A"/>
  <path d="M85.9419 70.8889L86.0029 70.9552L86.0697 70.8946L86.0087 70.8284L85.9419 70.8889Z" fill="#3D816A"/>
  <path d="M93.5693 70.0401L93.5889 70.0618L93.6108 70.042L93.5912 70.0203L93.5693 70.0401Z" fill="#3D816A"/>
  <path d="M101.135 69.1881L101.175 69.2323L101.219 69.1919L101.179 69.1477L101.135 69.1881Z" fill="#3D816A"/>
  <path d="M97.4614 76.562L101.822 81.3299L106.596 76.9731L102.234 72.2051L97.4614 76.562Z" fill="#3D816A"/>
  <path d="M98.8252 84.1599L102.701 88.3981L106.943 84.5255L103.067 80.2871L98.8252 84.1599Z" fill="#3D816A"/>
  <path d="M103.689 91.9158L103.731 91.9595L103.775 91.9192L103.734 91.8755L103.689 91.9158Z" fill="#3D816A"/>
  <path d="M99.1985 99.2519L104.347 104.881L109.981 99.7375L104.833 94.1091L99.1985 99.2519Z" fill="#3D816A"/>
  <path d="M105.36 107.068L105.44 107.156L105.529 107.076L105.448 106.987L105.36 107.068Z" fill="#3D816A"/>
  <path d="M106.255 114.651L106.295 114.696L106.34 114.656L106.298 114.611L106.255 114.651Z" fill="#3D816A"/>
  <path d="M107.109 122.222L107.15 122.266L107.195 122.226L107.154 122.182L107.109 122.222Z" fill="#3D816A"/>
  <path d="M31.033 175.975L36.1814 181.605L41.8156 176.461L36.6672 170.831L31.033 175.975Z" fill="#3D816A"/>
  <path d="M23.447 176.829L28.5954 182.459L34.2297 177.315L29.0813 171.686L23.447 176.829Z" fill="#3D816A"/>
  <path d="M21.2163 177.917L21.2567 177.96L21.301 177.92L21.2605 177.876L21.2163 177.917Z" fill="#3D816A"/>
  <path d="M9.26587 71.8402L9.3063 71.8844L9.35053 71.844L9.3101 71.7998L9.26587 71.8402Z" fill="#3D816A"/>
  <path d="M16.8518 70.9862L16.8922 71.0304L16.9365 70.99L16.896 70.9458L16.8518 70.9862Z" fill="#3D816A"/>
  <path d="M24.4587 70.1299L24.4787 70.1517L24.5004 70.1319L24.4805 70.1101L24.4587 70.1299Z" fill="#3D816A"/>
  <path d="M32.0447 69.285L32.0645 69.3068L32.0863 69.2869L32.0664 69.2651L32.0447 69.285Z" fill="#3D816A"/>
  <path d="M34.384 68.189L39.4111 73.6855L44.9128 68.663L39.8857 63.1665L34.384 68.189Z" fill="#3D816A"/>
  <path d="M41.8606 67.3348L46.9887 72.9417L52.6008 67.8184L47.4727 62.2114L41.8606 67.3348Z" fill="#3D816A"/>
  <path d="M54.7126 66.7212L54.8135 66.8316L54.924 66.7307L54.8231 66.6204L54.7126 66.7212Z" fill="#3D816A"/>
  <path d="M57.0122 65.6286L62.1609 71.2576L67.7946 66.114L62.647 60.4851L57.0122 65.6286Z" fill="#3D816A"/>
  <path d="M69.2666 64.9847L69.9531 65.7352L70.7041 65.0494L70.0176 64.2988L69.2666 64.9847Z" fill="#3D816A"/>
  <path d="M77.5518 64.1696L77.5713 64.1913L77.5932 64.1714L77.5736 64.1497L77.5518 64.1696Z" fill="#3D816A"/>
  <path d="M85.0481 63.3137L85.1483 63.4241L85.2589 63.3232L85.1575 63.2129L85.0481 63.3137Z" fill="#3D816A"/>
  <path d="M92.3748 62.4455L92.718 62.8207L93.0935 62.4778L92.7503 62.1025L92.3748 62.4455Z" fill="#3D816A"/>
  <path d="M100.28 61.6092L100.32 61.6535L100.364 61.6131L100.324 61.5688L100.28 61.6092Z" fill="#3D816A"/>
  <path d="M107.865 60.7552L107.906 60.7994L107.95 60.759L107.91 60.7148L107.865 60.7552Z" fill="#3D816A"/>
  <path d="M108.7 68.3358L108.761 68.4021L108.827 68.3414L108.767 68.2751L108.7 68.3358Z" fill="#3D816A"/>
  <path d="M104.309 75.6724L109.377 81.213L114.922 76.1503L109.855 70.6096L104.309 75.6724Z" fill="#3D816A"/>
  <path d="M108.137 83.3817L110.359 85.81L112.789 83.5912L110.568 81.1631L108.137 83.3817Z" fill="#3D816A"/>
  <path d="M111.216 91.058L111.317 91.1683L111.428 91.0675L111.326 90.957L111.216 91.058Z" fill="#3D816A"/>
  <path d="M112.07 98.6362L112.172 98.7467L112.282 98.6466L112.181 98.5361L112.07 98.6362Z" fill="#3D816A"/>
  <path d="M112.986 106.219L113.026 106.263L113.07 106.223L113.03 106.178L112.986 106.219Z" fill="#3D816A"/>
  <path d="M113.841 113.797L113.881 113.842L113.926 113.802L113.884 113.757L113.841 113.797Z" fill="#3D816A"/>
  <path d="M114.695 121.367L114.736 121.412L114.781 121.372L114.74 121.327L114.695 121.367Z" fill="#3D816A"/>
  <path d="M24.302 184.399L29.4504 190.028L35.0846 184.884L29.9362 179.256L24.302 184.399Z" fill="#3D816A"/>
  <path d="M16.7161 185.254L21.8643 190.882L27.4986 185.738L22.3503 180.11L16.7161 185.254Z" fill="#3D816A"/>
  <path d="M14.4851 186.349L14.5255 186.394L14.5698 186.353L14.5293 186.309L14.4851 186.349Z" fill="#3D816A"/>
  <path d="M0.85498 65.1134L0.874793 65.1352L0.89656 65.1153L0.876748 65.0935L0.85498 65.1134Z" fill="#3D816A"/>
  <path d="M8.41089 64.2613L8.45144 64.3055L8.49567 64.2651L8.45524 64.2209L8.41089 64.2613Z" fill="#3D816A"/>
  <path d="M16.0178 63.4052L16.0377 63.4269L16.0595 63.407L16.0396 63.3853L16.0178 63.4052Z" fill="#3D816A"/>
  <path d="M23.583 62.5533L23.6234 62.5975L23.6677 62.5571L23.6272 62.5129L23.583 62.5533Z" fill="#3D816A"/>
  <path d="M31.1487 61.701L31.2093 61.7673L31.2757 61.7067L31.215 61.6404L31.1487 61.701Z" fill="#3D816A"/>
  <path d="M34.127 60.6401L38.5889 65.5185L43.4719 61.0608L39.01 56.1824L34.127 60.6401Z" fill="#3D816A"/>
  <path d="M41.0547 59.7615L46.1425 65.3241L51.7105 60.2412L46.6227 54.6785L41.0547 59.7615Z" fill="#3D816A"/>
  <path d="M48.7612 58.9143L53.7279 64.3445L59.1627 59.3826L54.1967 53.9524L48.7612 58.9143Z" fill="#3D816A"/>
  <path d="M60.5759 58.2548L61.5043 59.2702L62.5214 58.3423L61.5919 57.3269L60.5759 58.2548Z" fill="#3D816A"/>
  <path d="M69.0293 57.4341L69.1307 57.5445L69.2412 57.4436L69.1399 57.3333L69.0293 57.4341Z" fill="#3D816A"/>
  <path d="M84.2612 55.7386L84.3015 55.7828L84.3465 55.7424L84.3062 55.6982L84.2612 55.7386Z" fill="#3D816A"/>
  <path d="M91.8381 54.8844L91.8796 54.9286L91.9234 54.8882L91.8831 54.844L91.8381 54.8844Z" fill="#3D816A"/>
  <path d="M99.446 54.0284L99.4656 54.0502L99.4875 54.0303L99.4668 54.0085L99.446 54.0284Z" fill="#3D816A"/>
  <path d="M107.031 53.1745L107.052 53.1962L107.074 53.1763L107.053 53.1545L107.031 53.1745Z" fill="#3D816A"/>
  <path d="M114.617 52.3292L114.638 52.351L114.66 52.3311L114.639 52.3093L114.617 52.3292Z" fill="#3D816A"/>
  <path d="M115.281 59.8977L115.484 60.1185L115.704 59.9168L115.503 59.696L115.281 59.8977Z" fill="#3D816A"/>
  <path d="M115.838 67.4568L116.323 67.9866L116.853 67.5025L116.368 66.9727L115.838 67.4568Z" fill="#3D816A"/>
  <path d="M112.274 74.8396L116.978 79.9829L122.127 75.2832L117.423 70.1399L112.274 74.8396Z" fill="#3D816A"/>
  <path d="M117.12 82.5967L118.008 83.568L118.98 82.6805L118.092 81.7092L117.12 82.5967Z" fill="#3D816A"/>
  <path d="M117.725 90.1614L118.856 91.3977L120.093 90.2681L118.962 89.032L117.725 90.1614Z" fill="#3D816A"/>
  <path d="M114.561 97.5546L119.527 102.985L124.962 98.023L119.996 92.5925L114.561 97.5546Z" fill="#3D816A"/>
  <path d="M120.572 105.365L120.612 105.41L120.656 105.368L120.616 105.324L120.572 105.365Z" fill="#3D816A"/>
  <path d="M121.427 112.944L121.467 112.988L121.511 112.947L121.471 112.903L121.427 112.944Z" fill="#3D816A"/>
  <path d="M122.272 120.522L122.313 120.566L122.357 120.526L122.317 120.482L122.272 120.522Z" fill="#3D816A"/>
  <path d="M123.127 128.092L123.168 128.137L123.212 128.096L123.172 128.052L123.127 128.092Z" fill="#3D816A"/>
  <path d="M18.2087 192.859L22.7514 197.826L27.7227 193.287L23.1801 188.321L18.2087 192.859Z" fill="#3D816A"/>
  <path d="M15.3401 193.928L15.3805 193.973L15.4248 193.931L15.3843 193.888L15.3401 193.928Z" fill="#3D816A"/>
  <path d="M0 57.5347L0.0198079 57.5564L0.0415798 57.5366L0.0217675 57.5149L0 57.5347Z" fill="#3D816A"/>
  <path d="M7.56519 56.6825L7.60561 56.7267L7.64984 56.6863L7.60941 56.6421L7.56519 56.6825Z" fill="#3D816A"/>
  <path d="M15.1421 55.8285L15.1825 55.8727L15.2267 55.8323L15.1863 55.7881L15.1421 55.8285Z" fill="#3D816A"/>
  <path d="M22.728 54.9745L22.7685 55.0187L22.8127 54.9783L22.7723 54.9341L22.728 54.9745Z" fill="#3D816A"/>
  <path d="M27.8206 54.0107L30.2432 56.6596L32.8947 54.2393L30.472 51.5903L27.8206 54.0107Z" fill="#3D816A"/>
  <path d="M32.8928 53.049L37.7181 58.3248L42.9989 53.504L38.1736 48.2283L32.8928 53.049Z" fill="#3D816A"/>
  <path d="M40.3494 52.1878L45.2958 57.596L50.7092 52.6542L45.7627 47.2461L40.3494 52.1878Z" fill="#3D816A"/>
  <path d="M47.7166 51.3249L52.865 56.9539L58.4991 51.8103L53.3508 46.1814L47.7166 51.3249Z" fill="#3D816A"/>
  <path d="M60.6484 50.713L60.6887 50.7572L60.7337 50.7168L60.6934 50.6726L60.6484 50.713Z" fill="#3D816A"/>
  <path d="M68.2346 49.859L68.2749 49.9032L68.3199 49.8628L68.2795 49.8186L68.2346 49.859Z" fill="#3D816A"/>
  <path d="M75.8206 49.0138L75.8609 49.058L75.9058 49.0176L75.8655 48.9734L75.8206 49.0138Z" fill="#3D816A"/>
  <path d="M83.4275 48.1578L83.4482 48.1796L83.469 48.1597L83.4494 48.1379L83.4275 48.1578Z" fill="#3D816A"/>
  <path d="M90.9927 47.3058L91.033 47.35L91.0779 47.3096L91.0365 47.2654L90.9927 47.3058Z" fill="#3D816A"/>
  <path d="M98.5994 46.4495L98.6189 46.4712L98.6408 46.4514L98.6212 46.4297L98.5994 46.4495Z" fill="#3D816A"/>
  <path d="M122.203 51.4752L122.224 51.497L122.245 51.4771L122.225 51.4553L122.203 51.4752Z" fill="#3D816A"/>
  <path d="M123.037 59.047L123.077 59.0912L123.122 59.0508L123.082 59.0066L123.037 59.047Z" fill="#3D816A"/>
  <path d="M123.714 66.6224L123.916 66.8431L124.137 66.6414L123.936 66.4207L123.714 66.6224Z" fill="#3D816A"/>
  <path d="M119.981 73.9926L124.564 79.0034L129.58 74.4247L124.996 69.4138L119.981 73.9926Z" fill="#3D816A"/>
  <path d="M122.87 81.658L125.515 84.5497L128.409 81.9074L125.764 79.0156L122.87 81.658Z" fill="#3D816A"/>
  <path d="M126.468 89.3602L126.489 89.382L126.511 89.3621L126.49 89.3403L126.468 89.3602Z" fill="#3D816A"/>
  <path d="M127.302 96.9319L127.344 96.9756L127.387 96.9353L127.347 96.8916L127.302 96.9319Z" fill="#3D816A"/>
  <path d="M128.158 104.511L128.198 104.555L128.242 104.514L128.202 104.471L128.158 104.511Z" fill="#3D816A"/>
  <path d="M129.003 112.09L129.044 112.134L129.089 112.093L129.047 112.05L129.003 112.09Z" fill="#3D816A"/>
  <path d="M129.858 119.669L129.898 119.712L129.943 119.672L129.903 119.628L129.858 119.669Z" fill="#3D816A"/>
  <path d="M6.71021 49.1039L6.75063 49.1481L6.79486 49.1077L6.75443 49.0635L6.71021 49.1039Z" fill="#3D816A"/>
  <path d="M14.2961 48.2587L14.3366 48.3028L14.3808 48.2624L14.3404 48.2183L14.2961 48.2587Z" fill="#3D816A"/>
  <path d="M18.0928 47.2349L21.747 51.2303L25.7462 47.5794L22.092 43.584L18.0928 47.2349Z" fill="#3D816A"/>
  <path d="M28.3618 46.5011L29.452 47.693L30.6452 46.6038L29.5549 45.4119L28.3618 46.5011Z" fill="#3D816A"/>
  <path d="M36.2869 45.6629L37.054 46.5018L37.8937 45.7353L37.1264 44.8965L36.2869 45.6629Z" fill="#3D816A"/>
  <path d="M43.1748 44.7788L44.6083 46.346L46.177 44.9139L44.7436 43.3467L43.1748 44.7788Z" fill="#3D816A"/>
  <path d="M46.8618 43.7462L52.0102 49.3751L57.6446 44.2317L52.4961 38.6028L46.8618 43.7462Z" fill="#3D816A"/>
  <path d="M59.8237 43.1411L59.8433 43.1629L59.8652 43.1431L59.8456 43.1213L59.8237 43.1411Z" fill="#3D816A"/>
  <path d="M67.3604 42.2821L67.4202 42.3484L67.4871 42.2877L67.426 42.2214L67.3604 42.2821Z" fill="#3D816A"/>
  <path d="M74.906 41.4315L75.0062 41.5418L75.1168 41.441L75.0166 41.3306L74.906 41.4315Z" fill="#3D816A"/>
  <path d="M82.5728 40.579L82.5923 40.6007L82.6142 40.5808L82.5946 40.5591L82.5728 40.579Z" fill="#3D816A"/>
  <path d="M130.636 58.1998L130.655 58.2216L130.677 58.2017L130.658 58.1799L130.636 58.1998Z" fill="#3D816A"/>
  <path d="M127.309 65.5898L131.328 69.9826L135.724 65.9686L131.707 61.5759L127.309 65.5898Z" fill="#3D816A"/>
  <path d="M132.324 73.3505L132.365 73.3946L132.408 73.3543L132.368 73.3101L132.324 73.3505Z" fill="#3D816A"/>
  <path d="M130.008 80.7881L133.076 84.1434L136.435 81.0774L133.365 77.7222L130.008 80.7881Z" fill="#3D816A"/>
  <path d="M130.083 95.8699L134.705 100.925L139.765 96.306L135.142 91.2505L130.083 95.8699Z" fill="#3D816A"/>
  <path d="M135.735 103.657L135.775 103.701L135.819 103.66L135.779 103.617L135.735 103.657Z" fill="#3D816A"/>
  <path d="M13.4211 40.6726L13.4817 40.7389L13.5481 40.6783L13.4875 40.6121L13.4211 40.6726Z" fill="#3D816A"/>
  <path d="M21.0273 39.8258L21.0678 39.87L21.112 39.8296L21.0716 39.7854L21.0273 39.8258Z" fill="#3D816A"/>
  <path d="M28.6042 38.9718L28.6447 39.016L28.6889 38.9756L28.6485 38.9314L28.6042 38.9718Z" fill="#3D816A"/>
  <path d="M31.0134 37.8878L36.0002 43.3401L41.4576 38.358L36.4709 32.9058L31.0134 37.8878Z" fill="#3D816A"/>
  <path d="M43.7761 37.2635L43.8166 37.3077L43.8608 37.2673L43.8204 37.2231L43.7761 37.2635Z" fill="#3D816A"/>
  <path d="M46.3057 36.1868L51.1714 41.5067L56.496 36.6456L51.6306 31.3257L46.3057 36.1868Z" fill="#3D816A"/>
  <path d="M58.9692 35.5624L58.9888 35.5841L59.0107 35.5642L58.9911 35.5425L58.9692 35.5624Z" fill="#3D816A"/>
  <path d="M74.1321 33.8541L74.1517 33.8759L74.1735 33.856L74.154 33.8342L74.1321 33.8541Z" fill="#3D816A"/>
  <path d="M96.8901 31.3009L96.9097 31.3227L96.9316 31.3028L96.912 31.281L96.8901 31.3009Z" fill="#3D816A"/>
  <path d="M104.476 30.4469L104.496 30.4687L104.518 30.4488L104.498 30.427L104.476 30.4469Z" fill="#3D816A"/>
  <path d="M112.053 29.5929L112.073 29.6147L112.094 29.5947L112.075 29.573L112.053 29.5929Z" fill="#3D816A"/>
  <path d="M119.639 28.7387L119.658 28.7604L119.68 28.7405L119.661 28.7188L119.639 28.7387Z" fill="#3D816A"/>
  <path d="M127.164 27.8904L127.245 27.9788L127.333 27.8981L127.252 27.8096L127.164 27.8904Z" fill="#3D816A"/>
  <path d="M138.222 57.3458L138.241 57.3676L138.263 57.3477L138.242 57.3259L138.222 57.3458Z" fill="#3D816A"/>
  <path d="M139.056 64.9176L139.096 64.9619L139.14 64.9215L139.099 64.8772L139.056 64.9176Z" fill="#3D816A"/>
  <path d="M139.91 72.4964L139.951 72.5406L139.994 72.5002L139.954 72.4561L139.91 72.4964Z" fill="#3D816A"/>
  <path d="M140.765 80.0753L140.805 80.1195L140.85 80.0791L140.809 80.0349L140.765 80.0753Z" fill="#3D816A"/>
  <path d="M139.985 87.5779L141.58 89.3218L143.325 87.7283L141.73 85.9844L139.985 87.5779Z" fill="#3D816A"/>
  <path d="M142.466 95.2324L142.507 95.2773L142.55 95.237L142.51 95.1921L142.466 95.2324Z" fill="#3D816A"/>
  <path d="M12.5864 33.1009L12.6269 33.1451L12.6712 33.1047L12.6308 33.0605L12.5864 33.1009Z" fill="#3D816A"/>
  <path d="M20.1724 32.2469L20.2128 32.2911L20.257 32.2507L20.2166 32.2065L20.1724 32.2469Z" fill="#3D816A"/>
  <path d="M23.7192 31.2091L27.6158 35.4694L31.8802 31.5765L27.9836 27.3162L23.7192 31.2091Z" fill="#3D816A"/>
  <path d="M34.7065 30.5124L35.3526 31.2188L36.0597 30.5734L35.4137 29.8669L34.7065 30.5124Z" fill="#3D816A"/>
  <path d="M42.9421 29.6917L42.9621 29.7134L42.9838 29.6936L42.9639 29.6719L42.9421 29.6917Z" fill="#3D816A"/>
  <path d="M49.1804 28.7741L50.4927 30.2088L51.9289 28.8978L50.6167 27.4629L49.1804 28.7741Z" fill="#3D816A"/>
  <path d="M80.8633 25.4303L80.8829 25.4521L80.9048 25.4321L80.8852 25.4104L80.8633 25.4303Z" fill="#3D816A"/>
  <path d="M88.4495 24.5763L88.469 24.5981L88.4909 24.5781L88.4713 24.5564L88.4495 24.5763Z" fill="#3D816A"/>
  <path d="M95.9939 23.717L96.0549 23.7834L96.1206 23.7228L96.0607 23.6565L95.9939 23.717Z" fill="#3D816A"/>
  <path d="M103.559 22.8647L103.641 22.9532L103.729 22.8724L103.648 22.7839L103.559 22.8647Z" fill="#3D816A"/>
  <path d="M111.076 22.016L111.218 22.1705L111.372 22.0293L111.232 21.8748L111.076 22.016Z" fill="#3D816A"/>
  <path d="M145.808 56.4918L145.827 56.5136L145.849 56.4937L145.829 56.4719L145.808 56.4918Z" fill="#3D816A"/>
  <path d="M146.662 64.0706L146.682 64.0923L146.704 64.0725L146.684 64.0508L146.662 64.0706Z" fill="#3D816A"/>
  <path d="M147.496 71.6424L147.537 71.6866L147.58 71.6462L147.54 71.6021L147.496 71.6424Z" fill="#3D816A"/>
  <path d="M148.351 79.2211L148.391 79.2652L148.435 79.2249L148.395 79.1807L148.351 79.2211Z" fill="#3D816A"/>
  <path d="M19.3176 24.6681L19.3581 24.7123L19.4023 24.6719L19.3619 24.6277L19.3176 24.6681Z" fill="#3D816A"/>
  <path d="M26.9243 23.8212L26.9441 23.8429L26.9659 23.823L26.9461 23.8013L26.9243 23.8212Z" fill="#3D816A"/>
  <path d="M33.9319 22.9442L34.4972 23.5623L35.1159 22.9975L34.5505 22.3794L33.9319 22.9442Z" fill="#3D816A"/>
  <path d="M49.6733 21.2589L49.6932 21.2807L49.7149 21.2608L49.6951 21.239L49.6733 21.2589Z" fill="#3D816A"/>
  <path d="M57.2585 20.4047L57.2793 20.4264L57.3012 20.4065L57.2804 20.3848L57.2585 20.4047Z" fill="#3D816A"/>
  <path d="M64.8447 19.5596L64.8655 19.5813L64.8873 19.5615L64.8666 19.5398L64.8447 19.5596Z" fill="#3D816A"/>
  <path d="M72.3904 18.7005L72.4503 18.7668L72.5171 18.7062L72.456 18.6399L72.3904 18.7005Z" fill="#3D816A"/>
  <path d="M79.9465 17.8481L80.0283 17.9365L80.1159 17.8557L80.0352 17.7673L79.9465 17.8481Z" fill="#3D816A"/>
  <path d="M87.5129 16.9958L87.6143 17.1062L87.7249 17.0054L87.6235 16.895L87.5129 16.9958Z" fill="#3D816A"/>
  <path d="M95.0586 16.1366L95.2003 16.291L95.3546 16.1498L95.2141 15.9954L95.0586 16.1366Z" fill="#3D816A"/>
  <path d="M153.393 55.6376L153.413 55.6593L153.435 55.6394L153.414 55.6177L153.393 55.6376Z" fill="#3D816A"/>
  <path d="M154.249 63.2163L154.268 63.2381L154.29 63.2183L154.27 63.1965L154.249 63.2163Z" fill="#3D816A"/>
  <path d="M18.4834 17.0963L18.5033 17.1181L18.5251 17.0982L18.5052 17.0764L18.4834 17.0963Z" fill="#3D816A"/>
  <path d="M41.2415 14.534L41.2614 14.5557L41.2832 14.5359L41.2632 14.5142L41.2415 14.534Z" fill="#3D816A"/>
  <path d="M48.7573 13.6767L48.8382 13.7651L48.9266 13.6843L48.8458 13.5959L48.7573 13.6767Z" fill="#3D816A"/>
  <path d="M56.3232 12.8244L56.4246 12.9348L56.5352 12.834L56.4338 12.7236L56.3232 12.8244Z" fill="#3D816A"/>
  <path d="M63.8403 11.9759L64.0016 12.1524L64.179 11.9911L64.0166 11.8145L63.8403 11.9759Z" fill="#3D816A"/>
  <path d="M71.3665 11.1181L71.5876 11.3609L71.8306 11.1391L71.6095 10.8962L71.3665 11.1181Z" fill="#3D816A"/>
  <path d="M25.2146 8.66346L25.2345 8.68521L25.2563 8.6653L25.2364 8.64355L25.2146 8.66346Z" fill="#3D816A"/>
  <path d="M32.7595 7.81322L32.8202 7.8795L32.8866 7.81897L32.8259 7.75269L32.7595 7.81322Z" fill="#3D816A"/>
  <path d="M40.2363 6.95027L40.3978 7.12679L40.5746 6.96546L40.4131 6.78882L40.2363 6.95027Z" fill="#3D816A"/>
  <path d="M47.7329 6.09417L47.9753 6.35907L48.2404 6.11695L47.9981 5.85205L47.7329 6.09417Z" fill="#3D816A"/>
  <path d="M55.3191 5.24054L55.5613 5.50544L55.8269 5.26332L55.5842 4.99854L55.3191 5.24054Z" fill="#3D816A"/>
  <path d="M31.7354 0.221866L31.9574 0.464677L32.2005 0.24281L31.9784 0L31.7354 0.221866Z" fill="#3D816A"/>
</svg>