<svg xmlns="http://www.w3.org/2000/svg" width="1351" height="578" viewBox="0 0 1351 578" fill="none">
  <path opacity="0.15" d="M1279.43 18.7042C1258.58 23.8092 1237.9 29.1861 1217.4 34.8751C1197.22 39.7847 1177.24 45.0065 1157.48 50.5021C1136.95 55.4501 1116.65 60.7504 1096.59 66.3609C1076.44 71.2323 1056.54 76.3755 1036.86 81.8692C1030.2 83.4681 1023.54 85.1034 1016.95 86.7789C1003.59 90.1701 990.38 93.6762 977.25 97.3795C964.782 100.34 952.431 103.457 940.197 106.691C932.835 108.641 925.549 110.628 918.303 112.692C902.251 116.513 886.354 120.564 870.693 124.812C866.953 125.825 863.211 126.878 859.472 127.929C841.434 132.176 823.668 136.735 806.174 141.607C804.46 142.074 802.706 142.581 800.992 143.087C782.097 147.529 763.473 152.322 745.2 157.465C744.344 157.699 743.524 157.973 742.668 158.206C723.694 162.649 705.032 167.442 686.72 172.625C686.019 172.819 685.319 173.052 684.616 173.248C666.071 177.573 647.876 182.249 630.033 187.276C628.942 187.588 627.891 187.9 626.837 188.212C609.11 192.342 591.696 196.785 574.631 201.578C572.839 202.083 571.085 202.591 569.293 203.136C552.578 206.993 536.216 211.123 520.164 215.644C517.397 216.424 514.67 217.203 511.943 217.982C496.475 221.529 481.281 225.385 466.358 229.477C462.268 230.607 458.216 231.737 454.165 232.945C440.217 236.141 426.503 239.57 413.022 243.233C213.62 297.437 67.9863 404.323 0 577.843H1.40263C69.311 405.103 214.557 298.643 413.256 244.518C419.022 242.959 424.866 241.441 430.748 239.959C243.076 299.501 105.428 408.063 38.9216 577.843H40.4411C109.597 401.869 255.504 291.903 454.437 234.27C460.047 232.985 465.696 231.737 471.385 230.53C283.478 293.462 144.933 405.22 76.9083 577.883H78.3888C147.779 402.336 290.373 289.994 483.697 227.997C490.593 226.633 497.488 225.268 504.462 224.022C319.906 290.695 183.036 404.869 113.999 577.883H115.479C185.413 403.115 324.894 288.59 512.878 222.541C520.435 221.216 528.034 219.97 535.67 218.762C355.01 289.098 220.01 405.22 149.843 577.883H151.361C222.231 404.011 359.1 287.616 542.293 217.749C550.242 216.54 558.229 215.411 566.292 214.357C389.412 288.123 256.204 405.999 184.635 577.883H186.154C258.271 405.103 392.918 287.07 571.669 213.657C579.813 212.605 588.033 211.631 596.292 210.694C422.957 287.694 291.192 407.012 217.908 577.883H219.426C293.218 406.349 426.152 286.876 601.006 210.189C609.267 209.293 617.604 208.475 625.982 207.696C455.84 287.656 325.166 408.297 249.776 577.883H251.297C327.113 407.751 458.722 287.032 630.15 207.305C638.449 206.564 646.825 205.901 655.24 205.279C487.787 288.044 357.697 409.662 279.814 577.883H281.335C359.568 409.233 490.476 287.539 658.98 205.005C667.241 204.421 675.578 203.876 683.915 203.408C518.683 288.707 388.75 411.181 308.022 577.883H309.542C390.659 410.909 521.215 288.357 687.345 203.253C695.525 202.824 703.707 202.434 712.006 202.083C548.45 289.72 418.164 412.856 334.049 577.883H335.607C420.035 412.622 550.943 289.448 715.278 201.966C723.265 201.654 731.33 201.382 739.396 201.187C583.164 287.539 455.8 405.179 368.022 559.256C360.152 565.414 352.322 571.687 344.528 577.883H346.75C353.218 572.738 359.646 567.556 366.153 562.49C363.541 567.089 361.009 571.687 358.476 576.363C358.204 576.868 357.932 577.376 357.659 577.922H359.217C359.372 577.648 359.489 577.376 359.646 577.064C362.723 571.413 365.841 565.802 369.035 560.23C381.736 550.294 394.515 540.475 407.412 530.694C398.45 544.448 389.801 558.476 381.502 572.816C380.529 574.492 379.555 576.206 378.58 577.922H380.217C381.035 576.48 381.853 574.999 382.71 573.558C391.71 558.047 401.06 542.968 410.801 528.16C423.619 518.458 436.516 508.872 449.489 499.363C437.917 514.95 426.736 530.887 415.944 547.253C404.216 557.385 392.568 567.595 380.997 577.96H383.256C393.19 569.075 403.165 560.23 413.216 551.502C408.93 558.047 404.685 564.634 400.555 571.336C399.191 573.517 397.905 575.779 396.58 578H398.179C399.347 576.051 400.515 574.063 401.685 572.154C406.671 564.089 411.776 556.178 416.996 548.307C428.917 538.018 440.918 527.887 453.035 517.834C442.086 532.369 431.451 547.253 421.164 562.413C415.904 567.556 410.763 572.817 405.541 578H407.488C410.801 574.726 413.995 571.375 417.346 568.14C415.165 571.413 413.061 574.726 410.918 578H412.555C415.749 573.088 418.943 568.179 422.256 563.348L424.554 561.126C434.566 551.385 444.698 541.798 454.944 532.291C444.736 545.461 434.762 558.867 425.021 572.466C423.347 574.297 421.71 576.129 420.035 577.96H422.878C423.969 576.441 425.021 574.883 426.112 573.362C434.645 564.089 443.256 554.892 451.943 545.852C443.449 556.333 435.074 566.932 426.853 577.688C426.775 577.764 426.696 577.883 426.62 577.96H428.489C452.332 549.319 477.15 521.652 502.865 494.961C530.877 468.034 559.747 442.004 589.396 416.91C619.241 393.372 649.708 370.578 680.798 348.521C713.214 326.935 746.057 306.01 779.408 285.747C828.771 257.574 878.796 230.568 929.367 204.695C1048.94 211.631 1175.87 227.179 1307.91 250.052C1322.17 252.507 1336.51 255.117 1350.88 257.729V256.287C1336.58 253.675 1322.33 251.103 1308.14 248.648C1176.96 225.931 1050.81 210.422 931.9 203.408C943.16 197.681 954.419 191.99 965.716 186.341C1087.31 191.563 1216.51 205.785 1350.88 227.646V226.243C1217.48 204.578 1089.18 190.355 968.328 185.055C979.626 179.444 990.925 173.91 1002.26 168.416C1112.83 171.455 1229.68 182.054 1350.88 199.083V197.641C1230.65 180.769 1114.78 170.247 1005.03 167.091C1016.29 161.636 1027.63 156.259 1038.92 150.92C1138.35 152.127 1242.77 159.453 1350.88 172.118V170.676C1243.86 158.128 1140.42 150.842 1041.89 149.555C1053.18 144.257 1064.48 138.995 1075.82 133.813C1163.95 133.463 1255.94 137.982 1350.88 146.788V145.387C1257.07 136.697 1166.13 132.176 1078.94 132.41C1090.23 127.266 1101.5 122.161 1112.83 117.097C1189.47 115.576 1269.03 117.719 1350.88 123.215V121.811C1270.23 116.434 1191.81 114.251 1116.18 115.615C1127.44 110.628 1138.7 105.678 1150 100.769C1215.03 98.4307 1282.16 98.7429 1350.92 101.51V100.068C1283.44 97.3795 1217.52 97.0271 1153.59 99.2101C1164.77 94.3789 1176.03 89.5861 1187.25 84.8698C1240.51 82.0645 1295.17 81.0899 1350.92 81.7524V80.3105C1296.53 79.6882 1243.19 80.5844 1191.14 83.2345C1202.29 78.5584 1213.47 73.959 1224.65 69.3615C1265.99 66.516 1308.14 64.8022 1350.92 64.0229V62.6193C1309.55 63.3603 1268.79 64.9975 1228.82 67.686C1239.88 63.165 1250.99 58.7226 1262.09 54.3204C1291.31 51.8272 1320.96 49.9162 1350.92 48.436V46.9941C1322.52 48.3575 1294.39 50.19 1266.61 52.528C1277.56 48.2024 1288.51 43.9151 1299.53 39.7082C1316.52 37.9925 1333.7 36.474 1350.92 35.0704V33.5902C1335.38 34.8368 1319.91 36.2002 1304.56 37.7588C1315.35 33.6285 1326.18 29.5365 1337.01 25.4847C1341.61 24.9389 1346.29 24.4315 1350.92 23.926V22.4841C1348.15 22.7962 1345.39 23.0682 1342.62 23.4186C1345.39 22.4056 1348.15 21.3927 1350.92 20.3797V18.8593C1346.17 20.6133 1341.41 22.329 1336.66 24.1213C1331.28 24.7436 1325.95 25.4062 1320.65 26.0687C1330.7 22.329 1340.83 18.7042 1350.92 15.0794V13.5992C1350.92 13.5992 1350.8 13.5992 1350.77 13.6375C1345 14.4571 1339.27 15.3149 1333.58 16.2111C1339.35 14.1833 1345.16 12.2359 1350.92 10.2482V8.72786C1342.62 11.5733 1334.36 14.4169 1326.14 17.3408C1320.22 18.2753 1314.3 19.2116 1308.42 20.1844C1317.02 17.224 1325.67 14.3403 1334.32 11.4565C1339.86 10.4436 1345.39 9.43062 1350.96 8.41767V7.01408C1348.82 7.4028 1346.64 7.75512 1344.49 8.14384C1346.64 7.443 1348.82 6.78047 1351 6.07964V4.55924C1345.35 6.38983 1339.66 8.22235 1334.01 10.0932C1333.19 10.2483 1332.38 10.4034 1331.6 10.5221C1327.23 11.3397 1322.87 12.1976 1318.51 13.0152C1325.56 10.794 1332.61 8.61106 1339.7 6.46835C1343.48 5.65071 1347.26 4.87136 1351 4.05181V0C1348.08 0.779342 1345.16 1.55869 1342.23 2.33803C1321.19 7.52152 1300.35 12.9769 1279.66 18.6659L1279.43 18.7042ZM1270.39 22.7177H1270.51C1273.55 21.8216 1276.59 21.004 1279.66 20.1461C1280.79 19.8742 1281.92 19.5621 1283.05 19.2882C1283.91 19.0929 1284.73 18.8995 1285.59 18.6659C1282.74 19.5219 1279.86 20.3797 1277.01 21.2759C1274.83 21.7431 1272.65 22.2122 1270.51 22.6794C1270.47 22.6794 1270.43 22.6794 1270.39 22.6794V22.7177ZM627.695 192.536C634.981 191.211 642.344 189.964 649.747 188.718C642.539 191.446 635.408 194.211 628.318 197.057C620.838 198.07 613.397 199.123 606.033 200.212C613.202 197.564 620.409 195.031 627.695 192.498V192.536ZM599.137 201.304C592.319 202.357 585.578 203.447 578.838 204.617C585.345 202.395 591.89 200.253 598.513 198.187C605.098 196.823 611.722 195.536 618.422 194.29C611.955 196.59 605.487 198.928 599.137 201.342V201.304ZM771.967 164.286C779.797 163.311 787.667 162.415 795.577 161.557C787.395 165.142 779.251 168.805 771.188 172.547C763.278 173.209 755.369 173.91 747.538 174.689C755.603 171.143 763.745 167.675 771.967 164.324V164.286ZM743.057 175.118C735.187 175.898 727.357 176.756 719.564 177.652C727.395 174.377 735.344 171.222 743.331 168.104C751.084 167.013 758.875 165.962 766.707 164.987C758.758 168.3 750.889 171.689 743.057 175.157V175.118ZM1061.68 93.4828L1061.95 93.4043L1109.09 80.2722C1099.98 83.897 1090.9 87.5985 1081.86 91.3382C1075.16 92.0007 1068.46 92.7034 1061.79 93.4828C1061.76 93.4828 1061.72 93.4828 1061.68 93.5211C1061.72 93.5211 1061.76 93.5211 1061.79 93.4828C1061.79 93.4828 1061.72 93.4828 1061.68 93.4828ZM1134.61 77.2717C1125.14 81.1301 1115.72 85.0268 1106.29 89.0001C1099.78 89.5861 1093.28 90.2084 1086.81 90.8326C1096.04 87.0144 1105.31 83.2728 1114.62 79.5714C1121.25 78.7519 1127.91 77.9725 1134.61 77.2717ZM1119.81 77.5053C1128.88 73.959 1138 70.4529 1147.16 67.0234C1153.74 66.089 1160.36 65.1928 1166.99 64.335C1157.72 67.9196 1148.52 71.5827 1139.37 75.3243C1132.82 76.0251 1126.31 76.7662 1119.81 77.5053ZM1014.03 121.032C1004.56 125.396 995.094 129.8 985.744 134.319C979.08 134.593 972.457 134.905 965.874 135.255C975.069 130.929 984.302 126.644 993.614 122.435C1000.39 121.928 1007.21 121.461 1014.03 120.993V121.032ZM997.47 120.72C1006.59 116.629 1015.78 112.576 1025.02 108.641C1031.83 107.978 1038.69 107.394 1045.59 106.808C1036.2 110.938 1026.89 115.109 1017.57 119.394C1010.83 119.823 1004.13 120.252 997.47 120.76V120.72ZM962.094 135.489C955.082 135.877 948.108 136.306 941.134 136.735C950.093 132.605 959.133 128.513 968.212 124.499C975.262 123.877 982.355 123.291 989.484 122.747C980.289 126.916 971.172 131.163 962.094 135.45V135.489ZM958.704 137.126C949.471 141.528 940.314 146.009 931.198 150.568C924.224 150.804 917.29 151.114 910.393 151.426C919.393 147.024 928.433 142.698 937.549 138.451C944.561 137.982 951.614 137.555 958.704 137.164V137.126ZM906.849 151.583C899.563 151.933 892.315 152.322 885.107 152.713C893.874 148.504 902.68 144.374 911.601 140.36C918.925 139.774 926.25 139.23 933.614 138.723C924.615 142.932 915.691 147.217 906.849 151.583ZM903.614 153.18C894.615 157.661 885.653 162.182 876.77 166.818C869.524 167.013 862.315 167.246 855.148 167.52C863.914 163.078 872.757 158.674 881.68 154.388C888.966 153.959 896.25 153.53 903.614 153.18ZM877.121 168.221C883.978 168.026 890.875 167.871 897.809 167.754C888.575 172.625 879.42 177.573 870.342 182.638C863.564 182.638 856.783 182.638 850.043 182.638C859.004 177.728 868.004 172.935 877.121 168.183V168.221ZM879.964 166.741C888.966 162.065 898.004 157.506 907.159 153.023C914.094 152.673 921.108 152.401 928.121 152.127C918.887 156.765 909.692 161.479 900.576 166.272C893.68 166.389 886.823 166.546 879.964 166.701V166.741ZM931.51 152.01C938.055 151.776 944.602 151.583 951.146 151.426C941.68 156.219 932.289 161.129 922.901 166.078C916.471 166.078 910.042 166.155 903.693 166.272C912.886 161.441 922.16 156.686 931.51 152.05V152.01ZM934.549 150.492C943.782 145.892 953.056 141.373 962.406 136.969C969.067 136.619 975.769 136.268 982.471 135.956C972.964 140.553 963.536 145.191 954.185 149.906C947.64 150.063 941.094 150.258 934.589 150.492H934.549ZM986.016 135.801C992.25 135.527 998.483 135.293 1004.72 135.06C994.977 139.814 985.277 144.607 975.614 149.479C969.535 149.555 963.536 149.672 957.496 149.829C966.965 145.074 976.432 140.398 986.016 135.801ZM989.328 134.202C998.795 129.683 1008.34 125.202 1017.92 120.836C1024.28 120.448 1030.63 120.057 1037.02 119.747C1027.27 124.266 1017.57 128.863 1007.91 133.539C1001.72 133.735 995.523 133.968 989.367 134.242L989.328 134.202ZM1021.47 119.161C1030.94 114.835 1040.4 110.628 1049.99 106.458C1056.46 105.912 1062.92 105.445 1069.43 104.978C1059.77 109.263 1050.11 113.667 1040.52 118.071C1034.17 118.382 1027.82 118.772 1021.47 119.161ZM1053.96 104.744C1063.31 100.69 1072.66 96.6767 1082.09 92.7417C1088.68 92.0792 1095.26 91.4549 1101.85 90.8326C1092.26 94.9246 1082.68 99.055 1073.17 103.264C1066.74 103.731 1060.31 104.198 1053.92 104.704L1053.96 104.744ZM1077.26 93.2492C1067.99 97.1057 1058.8 101.081 1049.64 105.094C1042.82 105.64 1036.08 106.262 1029.34 106.887C1038.38 103.028 1047.5 99.2484 1056.65 95.5087C1063.51 94.7293 1070.37 93.95 1077.26 93.2492ZM1024.66 107.277C1017.65 107.94 1010.68 108.641 1003.7 109.38C1012.47 105.757 1021.28 102.211 1030.12 98.7046C1037.13 97.8084 1044.22 96.9104 1051.31 96.0927C1042.39 99.7558 1033.47 103.497 1024.63 107.277H1024.66ZM1020.38 109.108C1011.26 113.043 1002.22 117.018 993.223 121.07C986.211 121.616 979.197 122.161 972.223 122.747C981.106 118.851 990.068 115.031 999.067 111.291C1006.16 110.511 1013.25 109.809 1020.42 109.108H1020.38ZM967.821 123.136C960.575 123.76 953.368 124.461 946.199 125.162C954.808 121.499 963.536 117.914 972.263 114.368C979.509 113.472 986.757 112.616 994.043 111.837C985.236 115.538 976.511 119.318 967.783 123.136H967.821ZM963.769 124.967C954.848 128.942 945.965 132.955 937.159 137.047C929.875 137.553 922.627 138.06 915.419 138.644C924.147 134.709 932.952 130.851 941.796 127.033C949.08 126.292 956.407 125.591 963.769 124.928V124.967ZM911.212 138.995C903.731 139.619 896.328 140.243 888.926 140.944C897.458 137.243 906.029 133.58 914.678 130.033C922.121 129.175 929.562 128.358 937.082 127.579C928.392 131.32 919.783 135.138 911.212 138.995ZM907.433 140.749C898.666 144.762 889.939 148.854 881.289 153.023C873.77 153.492 866.29 153.959 858.849 154.505C867.458 150.53 876.108 146.633 884.836 142.775C892.355 142.074 899.875 141.373 907.433 140.749ZM854.874 154.777C847.199 155.323 839.601 155.947 832.005 156.609C840.381 152.868 848.796 149.205 857.291 145.62C864.927 144.762 872.602 143.945 880.316 143.204C871.784 146.984 863.29 150.842 854.874 154.777ZM851.289 156.452C842.68 160.506 834.148 164.637 825.654 168.884C817.9 169.313 810.187 169.742 802.511 170.247C810.927 166.234 819.421 162.258 827.992 158.402C835.706 157.699 843.498 157.077 851.289 156.452ZM829.238 168.688C837.849 164.441 846.537 160.273 855.265 156.181C862.784 155.635 870.342 155.089 877.938 154.622C869.134 158.869 860.406 163.233 851.718 167.675C844.199 167.988 836.679 168.3 829.238 168.688ZM852.069 169.079C859.316 168.805 866.562 168.533 873.886 168.338C864.887 173.052 855.927 177.845 847.044 182.716C839.875 182.757 832.706 182.874 825.577 182.99C834.343 178.274 843.148 173.638 852.069 169.079ZM847.395 184.12C854.173 184.08 860.952 184.042 867.771 184.08C858.616 189.185 849.497 194.368 840.421 199.667C833.757 199.512 827.134 199.395 820.51 199.316C829.395 194.173 838.355 189.108 847.395 184.158V184.12ZM870.654 184.08C876.925 184.08 883.198 184.158 889.51 184.237C880.083 189.497 870.693 194.797 861.381 200.212C855.265 200.019 849.187 199.862 843.148 199.745C852.264 194.447 861.419 189.263 870.693 184.12L870.654 184.08ZM873.226 182.678C882.381 177.611 891.614 172.664 900.888 167.754C907.276 167.637 913.706 167.597 920.172 167.52C910.705 172.547 901.315 177.652 891.964 182.833C885.691 182.755 879.459 182.678 873.226 182.678ZM894.81 182.874C904.237 177.652 913.706 172.547 923.251 167.48C929.095 167.48 934.939 167.442 940.822 167.48C931.081 172.625 921.419 177.885 911.797 183.184C906.107 183.067 900.459 182.95 894.77 182.874H894.81ZM925.94 166.078C935.366 161.09 944.873 156.181 954.457 151.347C960.497 151.192 966.574 151.076 972.652 150.959C962.873 155.907 953.134 160.935 943.472 166.038C937.587 166.038 931.784 166.038 925.94 166.038V166.078ZM975.886 150.92C981.263 150.842 986.678 150.804 992.094 150.725C982.042 155.79 972.03 160.973 962.094 166.155C956.874 166.078 951.692 166.038 946.471 166.038C956.211 160.895 966.029 155.868 975.886 150.88V150.92ZM978.808 149.479C988.549 144.569 998.328 139.736 1008.15 134.943C1013.79 134.748 1019.45 134.593 1025.13 134.437C1015.04 139.307 1004.99 144.257 995.016 149.283C989.6 149.283 984.185 149.362 978.808 149.438V149.479ZM1011.3 133.423C1021.08 128.708 1030.9 124.111 1040.8 119.551C1046.6 119.239 1052.48 118.967 1058.33 118.732C1048.28 123.408 1038.26 128.163 1028.29 132.955C1022.6 133.112 1016.95 133.229 1011.3 133.423ZM1044.26 117.953C1053.96 113.472 1063.7 109.07 1073.52 104.744C1079.52 104.315 1085.56 103.924 1091.6 103.536C1081.59 108.016 1071.61 112.576 1061.72 117.173C1055.87 117.409 1050.07 117.681 1044.3 117.993L1044.26 117.953ZM1077.34 103.028C1087 98.7811 1096.78 94.6125 1106.52 90.4822C1112.68 89.9365 1118.83 89.429 1125.03 88.9235C1115.09 93.2089 1105.16 97.4963 1095.26 101.899C1089.26 102.249 1083.26 102.64 1077.34 103.028ZM1110.85 88.6899C1120.43 84.6764 1130.01 80.7012 1139.64 76.8045C1145.91 76.1419 1152.22 75.4794 1158.57 74.8552C1148.75 78.9089 1138.94 83.0009 1129.2 87.1695C1123.08 87.677 1116.96 88.1442 1110.85 88.6899ZM1144.39 74.8552C1153.86 71.0369 1163.36 67.3356 1172.87 63.6725C1179.22 62.8548 1185.61 62.1138 1192 61.3344C1182.34 65.1526 1172.71 69.011 1163.13 72.946C1156.86 73.5703 1150.58 74.1926 1144.35 74.8552H1144.39ZM1178.44 61.568C1187.64 58.062 1196.91 54.554 1206.18 51.1245C1212.53 50.19 1218.92 49.2939 1225.31 48.436C1215.88 52.0206 1206.46 55.6454 1197.1 59.3085C1190.87 60.0093 1184.64 60.7887 1178.44 61.5297V61.568ZM1205.87 49.7611C1199.52 50.6956 1193.21 51.6319 1186.9 52.6066C1195.31 49.606 1203.77 46.682 1212.26 43.7983C1218.69 42.6685 1225.12 41.5387 1231.58 40.4473C1222.97 43.4881 1214.44 46.6054 1205.87 49.7611ZM1199.44 52.1374C1190.44 55.4884 1181.48 58.8796 1172.52 62.3091C1166.01 63.1267 1159.55 63.9846 1153.12 64.8807C1161.92 61.6063 1170.77 58.3722 1179.61 55.1782C1186.2 54.125 1192.82 53.1121 1199.44 52.1374ZM1146.73 65.7769C1140.18 66.673 1133.64 67.6075 1127.09 68.6204C1135.43 65.6199 1143.84 62.6595 1152.26 59.7374C1158.81 58.6058 1165.43 57.5162 1172.01 56.4248C1163.52 59.5019 1155.11 62.6193 1146.69 65.7769H1146.73ZM1140.69 68.0364C1131.81 71.3874 1122.96 74.8168 1114.2 78.3248C1107.5 79.1425 1100.79 79.9601 1094.13 80.8563C1102.82 77.5455 1111.51 74.2711 1120.27 71.0752C1127.05 70.024 1133.83 69.011 1140.65 68.0364H1140.69ZM1088.09 81.6356C1081.31 82.5318 1074.54 83.5064 1067.79 84.4811C1076.05 81.4422 1084.35 78.4416 1092.73 75.5177C1099.51 74.3879 1106.33 73.2582 1113.14 72.2069C1104.77 75.2841 1096.43 78.4417 1088.09 81.6356ZM1082.33 83.8971C1073.6 87.2863 1064.95 90.7158 1056.3 94.2219C1049.37 95.0012 1042.47 95.8208 1035.61 96.6767C1044.18 93.3257 1052.79 90.0533 1061.44 86.8574C1068.38 85.8444 1075.31 84.8315 1082.29 83.8971H1082.33ZM1029.81 97.4561C1022.83 98.3522 1015.9 99.2886 1009 100.263C1017.22 97.1842 1025.52 94.1453 1033.82 91.183C1040.72 90.0533 1047.61 88.9618 1054.59 87.9106C1046.29 91.0279 1038.03 94.2219 1029.81 97.4561ZM1024.43 99.5605C1015.82 102.99 1007.25 106.458 998.717 110.042C991.548 110.822 984.457 111.601 977.367 112.459C985.861 109.07 994.393 105.757 1002.96 102.523C1010.09 101.51 1017.22 100.535 1024.39 99.6007L1024.43 99.5605ZM971.951 113.121C964.782 114.018 957.653 114.914 950.562 115.888C958.704 112.771 966.886 109.732 975.107 106.77C982.198 105.64 989.367 104.549 996.536 103.497C988.316 106.653 980.133 109.887 971.99 113.16L971.951 113.121ZM966.887 115.188C958.392 118.655 949.9 122.161 941.484 125.786C934.12 126.525 926.795 127.345 919.471 128.163C927.849 124.733 936.262 121.422 944.757 118.11C952.081 117.097 959.445 116.122 966.848 115.188H966.887ZM914.368 128.747C907.004 129.604 899.718 130.501 892.472 131.475C900.497 128.358 908.601 125.279 916.745 122.278C924.031 121.148 931.355 120.057 938.758 119.006C930.575 122.202 922.472 125.474 914.406 128.787L914.368 128.747ZM909.497 130.774C901.081 134.28 892.784 137.827 884.485 141.452C876.925 142.191 869.446 142.932 861.965 143.749C870.225 140.282 878.563 136.892 886.9 133.58C894.381 132.605 901.901 131.63 909.497 130.734V130.774ZM856.978 144.333C849.459 145.191 841.978 146.087 834.498 146.984C842.485 143.79 850.51 140.711 858.616 137.672C866.016 136.54 873.498 135.489 881.017 134.437C872.952 137.672 864.927 140.944 856.978 144.333ZM852.343 146.283C844.044 149.829 835.783 153.414 827.603 157.115C819.888 157.818 812.213 158.557 804.577 159.336C812.757 155.83 820.979 152.439 829.276 149.05C836.913 148.075 844.589 147.141 852.302 146.283H852.343ZM799.822 159.844C792.109 160.661 784.473 161.519 776.875 162.454C784.785 159.219 792.772 156.102 800.835 153.023C808.395 151.933 815.991 150.88 823.668 149.867C815.679 153.142 807.732 156.493 799.862 159.882L799.822 159.844ZM775.24 172.39C783.498 168.61 791.797 164.908 800.213 161.245C808.045 160.428 815.874 159.648 823.785 158.907C815.369 162.727 806.991 166.662 798.733 170.638C790.863 171.183 783.031 171.767 775.24 172.39ZM799.043 172.08C806.796 171.534 814.59 171.067 822.46 170.638C813.81 174.963 805.278 179.365 796.783 183.846C788.992 184.12 781.239 184.392 773.524 184.742C781.94 180.419 790.472 176.21 799.043 172.08ZM799.979 183.77C808.55 179.249 817.238 174.806 825.966 170.481C833.485 170.092 841.043 169.701 848.641 169.389C839.835 173.91 831.109 178.508 822.46 183.224C814.94 183.379 807.459 183.536 799.979 183.77ZM822.81 184.626C829.979 184.471 837.146 184.392 844.394 184.315C835.433 189.263 826.55 194.29 817.707 199.433C810.576 199.356 803.524 199.316 796.473 199.278C805.161 194.29 813.965 189.418 822.81 184.626ZM818.057 200.875C824.681 200.953 831.343 201.07 838.004 201.225C740.252 258.429 650.604 325.336 570.968 402.648C560.567 412.739 550.318 423.028 540.267 433.51C526.904 442.666 513.619 451.902 500.372 461.215C522.618 435.419 545.916 410.675 570.306 387.021C643.981 315.478 727.162 253.677 818.096 200.875H818.057ZM541.164 434.601C553.903 425.911 566.683 417.298 579.539 408.804C573.657 414.338 567.774 419.91 561.968 425.559C555.228 432.068 548.605 438.691 542.021 445.355C529.475 454.864 517.046 464.526 504.695 474.231C516.579 460.746 528.734 447.576 541.164 434.639V434.601ZM545.956 429.651C554.487 420.845 563.136 412.194 571.943 403.661C652.046 325.882 742.318 258.703 840.731 201.266C846.809 201.421 852.888 201.578 859.043 201.733C760.005 259.559 668.33 326.466 585.695 403.037C572.372 411.805 559.125 420.649 545.956 429.613V429.651ZM861.693 201.811C867.108 201.966 872.563 202.162 878.055 202.395C790.901 252.779 708.617 309.516 632.253 372.916C619.046 381.332 605.916 389.826 592.826 398.399C674.291 323.739 764.486 258.429 861.693 201.811ZM864.031 200.446C873.381 195.031 882.81 189.692 892.315 184.432C897.966 184.509 903.614 184.587 909.303 184.704C899.601 190.081 889.939 195.498 880.355 201.032C874.899 200.837 869.446 200.641 864.031 200.446ZM912.147 184.742C917.057 184.859 922.005 184.976 926.991 185.095C916.978 190.55 906.965 196.082 897.069 201.695C892.355 201.499 887.679 201.266 883.005 201.109C892.665 195.577 902.368 190.121 912.147 184.742ZM914.64 183.379C924.302 178.081 934.043 172.78 943.822 167.637C949.004 167.637 954.224 167.675 959.445 167.754C949.393 173.014 939.38 178.353 929.446 183.77C924.498 183.653 919.55 183.496 914.602 183.379H914.64ZM932.289 183.808C942.302 178.391 952.315 173.014 962.444 167.714C966.848 167.754 971.25 167.83 975.653 167.909C965.249 173.286 954.886 178.703 944.602 184.197C940.51 184.08 936.419 183.925 932.328 183.808H932.289ZM965.056 166.35C975.069 161.09 985.158 155.947 995.328 150.842C1000 150.842 1004.68 150.842 1009.39 150.804C998.991 155.985 988.626 161.245 978.301 166.546C973.899 166.467 969.458 166.391 965.094 166.35H965.056ZM998.25 149.4C1008.3 144.374 1018.43 139.385 1028.6 134.476C1033.55 134.359 1038.46 134.242 1043.41 134.164C1032.96 139.152 1022.56 144.217 1012.24 149.362C1007.56 149.362 1002.89 149.362 998.25 149.362V149.4ZM1031.72 132.955C1041.77 128.124 1051.86 123.331 1061.99 118.655C1067.21 118.422 1072.43 118.226 1077.65 118.071C1067.25 122.902 1056.85 127.774 1046.52 132.683C1041.57 132.76 1036.62 132.879 1031.68 132.955H1031.72ZM1065.34 117.056C1075.39 112.421 1085.44 107.861 1095.57 103.34C1101.03 103.028 1106.52 102.718 1112.01 102.406C1101.65 107.042 1091.33 111.718 1081 116.472C1075.78 116.668 1070.56 116.823 1065.34 117.056ZM1099.31 101.705C1109.33 97.2627 1119.38 92.937 1129.43 88.6114C1135.08 88.1825 1140.77 87.7535 1146.46 87.3246C1136.13 91.7671 1125.89 96.2497 1115.64 100.807C1110.18 101.081 1104.73 101.393 1099.31 101.705ZM1133.6 86.8574C1143.49 82.6486 1153.47 78.4799 1163.44 74.3879C1169.25 73.8422 1175.09 73.2965 1180.94 72.7909C1170.73 76.9998 1160.56 81.3235 1150.39 85.6491C1144.78 86.0398 1139.17 86.4285 1133.6 86.8574ZM1167.96 72.5573C1177.74 68.5821 1187.56 64.6471 1197.42 60.7504C1203.38 60.0477 1209.38 59.3851 1215.42 58.7628C1205.32 62.7763 1195.27 66.8683 1185.26 70.9986C1179.5 71.5042 1173.73 72.0116 1167.96 72.5573ZM1202.6 58.7628C1212.22 54.9829 1221.92 51.2815 1231.62 47.6567C1237.7 46.839 1243.82 46.0597 1249.93 45.3187C1240.04 49.0986 1230.18 52.957 1220.36 56.8537C1214.44 57.476 1208.52 58.1002 1202.64 58.7628H1202.6ZM1231.31 46.2531C1225.04 47.0727 1218.8 47.9305 1212.57 48.8267C1221.49 45.5523 1230.42 42.3564 1239.42 39.2007C1245.81 38.1495 1252.2 37.1365 1258.62 36.1619C1249.51 39.4745 1240.39 42.8638 1231.31 46.2531ZM1239.07 37.8374C1233.06 38.812 1227.07 39.825 1221.07 40.8762C1228.97 38.2261 1236.88 35.6161 1244.83 33.0445C1250.87 31.8745 1256.91 30.7065 1262.99 29.5767C1255 32.3034 1247.01 35.0321 1239.07 37.8374ZM1211.87 42.4732C1206.14 43.4881 1200.46 44.5393 1194.77 45.5925C1201.82 43.3311 1208.91 41.1098 1216 38.8886C1221.65 37.6803 1227.3 36.5506 1232.99 35.3825C1225.94 37.7205 1218.88 40.0586 1211.87 42.4349V42.4732ZM1203.07 45.514C1195.12 48.2407 1187.17 51.0479 1179.3 53.8531C1173.03 54.8661 1166.75 55.879 1160.52 56.9303C1168.39 54.2418 1176.3 51.6319 1184.25 49.02C1190.52 47.8118 1196.79 46.6437 1203.07 45.514ZM1151.95 58.3722C1146.07 59.3851 1140.18 60.4383 1134.34 61.4895C1134.34 61.4895 1134.34 61.4895 1134.3 61.4895C1134.3 61.4895 1134.34 61.4895 1134.38 61.4895C1141.35 59.23 1148.4 56.9705 1155.46 54.7493C1161.34 53.541 1167.22 52.3327 1173.14 51.1647C1166.05 53.5027 1159 55.9173 1151.99 58.3339L1151.95 58.3722ZM1143.46 61.2961C1135.59 64.0611 1127.72 66.8683 1119.92 69.7119C1113.46 70.6865 1107.07 71.6995 1100.64 72.7507C1100.64 72.7507 1100.64 72.7507 1100.6 72.7507C1100.6 72.7507 1100.6 72.7507 1100.64 72.7507C1108.43 70.0623 1116.26 67.4121 1124.09 64.8022C1130.52 63.5939 1136.99 62.4259 1143.46 61.2559V61.2961ZM1092.34 74.1543C1086.26 75.1673 1080.22 76.2204 1074.14 77.31C1081.2 75.0122 1088.25 72.7124 1095.34 70.4529C1101.42 69.2064 1107.5 67.9981 1113.61 66.8281C1106.48 69.2447 1099.39 71.6612 1092.34 74.1543ZM1084.51 76.9213C1076.68 79.7265 1068.85 82.572 1061.09 85.4557C1054.43 86.4285 1047.85 87.4816 1041.22 88.5329C1041.22 88.5329 1041.22 88.5329 1041.18 88.5329C1041.18 88.5329 1041.18 88.5329 1041.22 88.5329C1048.98 85.8061 1056.77 83.1177 1064.64 80.5059C1071.26 79.2976 1077.89 78.0893 1084.55 76.9596L1084.51 76.9213ZM1033.47 89.7794C1027.12 90.8326 1020.81 91.8839 1014.54 93.0136C1021.66 90.6373 1028.83 88.2993 1036.04 85.9995C1042.28 84.753 1048.51 83.5064 1054.82 82.3384C1047.69 84.7932 1040.6 87.248 1033.51 89.7794H1033.47ZM1025.83 92.5081C1018.04 95.3134 1010.33 98.1971 1002.65 101.119C995.757 102.094 988.938 103.145 982.119 104.198C989.872 101.431 997.704 98.7046 1005.54 96.0544C1012.28 94.8461 1019.02 93.6762 1025.83 92.5081ZM974.718 105.366C968.212 106.419 961.705 107.511 955.237 108.6C962.406 106.186 969.613 103.808 976.861 101.47C983.211 100.223 989.6 98.9765 995.99 97.8084C988.859 100.302 981.769 102.795 974.718 105.366ZM967.587 107.94C959.834 110.822 952.081 113.746 944.406 116.706C937.392 117.681 930.38 118.694 923.444 119.747C931.159 116.94 938.913 114.213 946.704 111.524C953.64 110.278 960.613 109.108 967.626 107.94H967.587ZM916.354 120.836C909.692 121.89 903.069 122.941 896.483 124.032C903.536 121.616 910.667 119.239 917.796 116.901C924.419 115.615 931.043 114.33 937.704 113.121C930.535 115.615 923.444 118.226 916.354 120.836ZM909.575 123.331C901.86 126.215 894.186 129.175 886.549 132.216C879.342 133.189 872.134 134.202 865.004 135.217C872.68 132.371 880.393 129.604 888.146 126.878C895.237 125.629 902.406 124.461 909.537 123.291L909.575 123.331ZM858.304 136.23C851.446 137.243 844.628 138.334 837.849 139.464C844.978 136.969 852.147 134.554 859.355 132.176C866.095 130.891 872.835 129.643 879.654 128.436C872.485 130.968 865.394 133.618 858.304 136.268V136.23ZM851.875 138.685C844.199 141.607 836.562 144.607 829.005 147.686C821.602 148.621 814.239 149.634 806.913 150.685C814.549 147.803 822.226 145.036 829.979 142.269C837.225 141.023 844.549 139.853 851.875 138.723V138.685ZM800.525 151.583C793.511 152.596 786.537 153.686 779.563 154.777C779.563 154.777 779.563 154.777 779.525 154.777C779.525 154.777 779.525 154.777 779.563 154.777C786.694 152.244 793.902 149.829 801.109 147.412C807.966 146.087 814.861 144.841 821.835 143.633C814.666 146.204 807.576 148.893 800.525 151.583ZM794.331 153.959C786.694 156.92 779.096 159.96 771.538 163.078C764.019 164.012 756.499 164.987 749.058 166.038C756.654 163.116 764.291 160.311 772.005 157.544C779.408 156.297 786.849 155.127 794.331 153.998V153.959ZM742.863 166.858C735.654 167.871 728.525 168.962 721.396 170.092C728.525 167.52 735.733 165.065 742.98 162.611C750.031 161.286 757.162 159.999 764.291 158.79C757.083 161.441 749.954 164.129 742.823 166.896L742.863 166.858ZM737.058 169.156C729.421 172.156 721.902 175.235 714.382 178.391C706.669 179.287 699.033 180.262 691.435 181.275C698.992 178.353 706.591 175.469 714.265 172.664C721.785 171.455 729.383 170.287 737.019 169.156H737.058ZM685.435 182.094C678.109 183.107 670.825 184.158 663.616 185.25C670.747 182.678 677.916 180.145 685.2 177.69C692.369 176.365 699.617 175.08 706.903 173.872C699.693 176.56 692.526 179.287 685.435 182.094ZM656.408 186.38C649.785 187.433 643.161 188.522 636.617 189.652C643.085 187.471 649.63 185.367 656.215 183.301C662.643 181.977 669.109 180.691 675.616 179.444C669.188 181.704 662.798 184.003 656.449 186.341L656.408 186.38ZM634.007 196.473C641.526 193.51 649.124 190.588 656.759 187.743C664.435 186.535 672.148 185.367 679.942 184.275C672.344 187.314 664.824 190.431 657.383 193.668C649.513 194.564 641.721 195.498 633.968 196.511L634.007 196.473ZM662.252 193.122C670.006 189.809 677.876 186.613 685.786 183.458C693.656 182.366 701.602 181.353 709.591 180.378C701.721 183.729 693.928 187.159 686.175 190.667C678.149 191.406 670.163 192.226 662.214 193.122H662.252ZM714.773 179.756C722.76 178.82 730.746 177.924 738.85 177.106C730.746 180.729 722.719 184.432 714.773 188.25C706.669 188.873 698.604 189.575 690.617 190.276C698.604 186.692 706.669 183.184 714.811 179.756H714.773ZM743.331 176.639C751.318 175.819 759.343 175.08 767.408 174.377C759.109 178.274 750.888 182.211 742.747 186.263C734.681 186.77 726.654 187.314 718.667 187.9C726.811 184.042 735.032 180.3 743.331 176.639ZM746.408 186.067C754.707 181.977 763.044 178.002 771.498 174.065C779.408 173.403 787.355 172.78 795.344 172.235C786.888 176.365 778.472 180.535 770.175 184.821C762.188 185.212 754.278 185.6 746.408 186.067ZM770.564 186.224C778.317 185.874 786.148 185.562 793.978 185.288C785.369 189.888 776.837 194.564 768.383 199.316C760.589 199.395 752.836 199.55 745.123 199.707C753.539 195.107 761.993 190.627 770.564 186.224ZM797.212 185.171C804.732 184.938 812.252 184.742 819.809 184.587C811.043 189.38 802.356 194.252 793.706 199.199C786.225 199.199 778.746 199.199 771.305 199.316C779.875 194.523 788.486 189.847 797.174 185.212L797.212 185.171ZM794.095 200.641C801.147 200.641 808.278 200.682 815.407 200.758C725.214 253.365 642.656 314.816 569.488 385.891C543.735 410.909 519.151 437.094 495.774 464.488C482.527 473.84 469.359 483.271 456.269 492.816C546.969 373.305 661.513 276.783 794.135 200.641H794.095ZM496.632 465.539C509.527 456.423 522.461 447.421 535.475 438.498C522.969 451.668 510.697 465.112 498.735 478.867C486.229 488.764 473.84 498.741 461.527 508.832C472.905 494.065 484.593 479.646 496.592 465.539H496.632ZM499.747 479.92C511.436 470.644 523.241 461.526 535.086 452.447C523.514 464.293 512.138 476.373 500.994 488.648C489.58 498.662 478.28 508.755 467.099 519.004C477.736 505.715 488.605 492.699 499.747 479.92ZM543.073 446.329C554.215 437.874 565.436 429.496 576.734 421.195C565.553 431.367 554.487 441.732 543.578 452.214C532.514 461.449 521.527 470.801 510.618 480.23C521.255 468.735 532.085 457.436 543.073 446.291V446.329ZM550.163 439.16C554.41 434.911 558.696 430.664 563.02 426.495C570.813 418.936 578.683 411.493 586.63 404.128C598.942 396.023 611.293 387.996 623.682 380.047C611.136 390.606 598.787 401.323 586.591 412.272C574.357 421.157 562.202 430.118 550.163 439.199V439.16ZM633.149 373.967C644.565 366.681 656.058 359.472 667.591 352.301C655.941 361.107 644.448 370.071 633.032 379.151C621.384 387.216 609.851 395.398 598.358 403.661C609.813 393.606 621.422 383.67 633.149 373.929V373.967ZM642.227 366.524C716.565 305.697 796.395 251.065 880.822 202.434C885.498 202.629 890.134 202.824 894.848 203.02C820.083 245.454 748.317 292.098 680.135 342.949C667.474 350.704 654.85 358.576 642.265 366.524H642.227ZM897.497 203.136C901.276 203.292 905.016 203.487 908.796 203.68C847.044 237.854 786.928 274.484 728.72 313.646C716.992 320.622 705.304 327.636 693.656 334.728C758.603 287.07 826.707 243.272 897.497 203.175V203.136ZM899.834 201.811C909.809 196.161 919.822 190.627 929.913 185.133C934.003 185.25 938.055 185.367 942.147 185.522C931.784 191.056 921.419 196.666 911.134 202.357C907.354 202.162 903.576 201.966 899.796 201.811H899.834ZM913.861 202.512C924.186 196.823 934.589 191.172 944.99 185.639C948.029 185.755 951.106 185.874 954.147 185.991C943.353 191.601 932.601 197.212 921.926 202.941C919.238 202.784 916.549 202.667 913.861 202.512ZM947.483 184.315C957.847 178.82 968.25 173.364 978.691 167.987C982.119 168.026 985.549 168.104 989.016 168.183C978.184 173.598 967.432 179.094 956.679 184.666C953.601 184.549 950.522 184.432 947.445 184.315H947.483ZM981.38 166.624C991.743 161.286 1002.18 156.024 1012.66 150.842C1016.44 150.842 1020.26 150.842 1024.08 150.842C1013.25 156.102 1002.5 161.441 991.743 166.818C988.275 166.741 984.848 166.662 981.418 166.584L981.38 166.624ZM1015.55 149.4C1025.99 144.257 1036.43 139.152 1046.95 134.164C1051.04 134.085 1055.17 134.047 1059.3 134.009C1048.47 139.114 1037.72 144.257 1026.96 149.479C1023.14 149.479 1019.37 149.438 1015.59 149.438L1015.55 149.4ZM1050.07 132.643C1060.47 127.695 1070.95 122.786 1081.43 117.953C1085.83 117.797 1090.28 117.681 1094.72 117.564C1083.92 122.474 1073.17 127.462 1062.42 132.526C1058.29 132.526 1054.16 132.605 1050.07 132.683V132.643ZM1084.74 116.394C1095.14 111.601 1105.55 106.887 1116.03 102.249C1120.74 102.015 1125.49 101.782 1130.25 101.586C1119.5 106.341 1108.78 111.134 1098.07 116.005C1093.63 116.122 1089.18 116.239 1084.74 116.394ZM1119.65 100.652C1130.01 96.0927 1140.38 91.5335 1150.78 87.091C1155.81 86.7406 1160.83 86.4285 1165.9 86.1183C1155.22 90.6756 1144.51 95.3134 1133.87 100.028C1129.12 100.223 1124.36 100.457 1119.65 100.69V100.652ZM1154.72 85.4155C1165 81.0516 1175.29 76.726 1185.61 72.4405C1190.91 71.9714 1196.25 71.5444 1201.58 71.1155C1190.95 75.5177 1180.35 79.9601 1169.79 84.4409C1164.77 84.753 1159.74 85.0651 1154.72 85.3772V85.4155ZM1190.05 70.6482C1200.22 66.4777 1210.47 62.3474 1220.71 58.2956C1226.21 57.7498 1231.74 57.1639 1237.31 56.6584C1226.83 60.8672 1216.35 65.1143 1205.87 69.3998C1200.57 69.7904 1195.31 70.2193 1190.05 70.6865V70.6482ZM1225.66 56.3463C1235.72 52.371 1245.81 48.4743 1255.9 44.6178C1261.58 43.9151 1267.27 43.2545 1273 42.5919C1262.64 46.5652 1252.31 50.6189 1242.03 54.7493C1236.57 55.2548 1231.12 55.8005 1225.7 56.3463H1225.66ZM1261.43 42.5134C1271.25 38.7718 1281.14 35.1087 1291.04 31.4456C1296.84 30.628 1302.69 29.8486 1308.53 29.0693C1298.4 32.8492 1288.27 36.6674 1278.18 40.5641C1272.57 41.1883 1267 41.8126 1261.43 42.4732V42.5134ZM1255.55 43.2142C1249.55 43.9553 1243.58 44.6944 1237.62 45.4737C1247.05 41.9677 1256.48 38.4999 1265.95 35.0704C1272.06 34.136 1278.22 33.2398 1284.42 32.382C1274.79 35.9283 1265.17 39.5511 1255.59 43.2142H1255.55ZM1265.6 33.707C1259.48 34.6415 1253.36 35.5778 1247.29 36.5506C1255.82 33.5902 1264.35 30.6663 1272.92 27.7844C1279.12 26.6527 1285.35 25.5632 1291.58 24.4717C1282.9 27.5106 1274.21 30.5897 1265.56 33.707H1265.6ZM1272.65 26.3808C1267.12 27.3938 1261.62 28.4067 1256.13 29.4599C1263.18 27.2387 1270.23 25.0175 1277.29 22.8728C1282.82 21.7048 1288.35 20.5348 1293.92 19.4051C1286.79 21.7048 1279.7 24.0428 1272.65 26.4191V26.3808ZM1230.69 34.4462C1230.69 34.4462 1230.73 34.4462 1230.77 34.4462C1236.42 32.7324 1242.1 31.0569 1247.75 29.3814C1252.31 28.3282 1256.87 27.3153 1261.47 26.3023C1255.82 28.0563 1250.21 29.8869 1244.56 31.6811C1239.92 32.5773 1235.32 33.5117 1230.73 34.4462C1230.73 34.4462 1230.69 34.4462 1230.65 34.4462H1230.69ZM1208.21 39.1222C1211.36 38.2261 1214.52 37.3299 1217.68 36.474C1220.01 35.888 1222.39 35.3423 1224.73 34.7583C1221.73 35.6544 1218.73 36.5908 1215.73 37.5252C1213.2 38.071 1210.7 38.5784 1208.17 39.1222H1208.21ZM1186.82 45.3187C1191.57 44.2272 1196.36 43.2142 1201.12 42.163C1195.39 43.9936 1189.66 45.8261 1183.98 47.695C1179.1 48.6313 1174.24 49.606 1169.37 50.5404C1175.17 48.7864 1180.98 47.0324 1186.82 45.3187ZM1146.53 55.2548C1146.53 55.2548 1146.61 55.2548 1146.65 55.2548C1150.31 54.2035 1154.01 53.1906 1157.68 52.1776C1160.09 51.5917 1162.55 51.0077 1165 50.4236C1161.73 51.4366 1158.42 52.4496 1155.14 53.4625C1152.3 54.0465 1149.5 54.6325 1146.65 55.2548C1146.65 55.2548 1146.57 55.2548 1146.53 55.2548ZM1126.43 61.1008C1131.38 60.0094 1136.33 58.9179 1141.28 57.8264C1135.47 59.6972 1129.66 61.6063 1123.86 63.5154C1118.79 64.4518 1113.77 65.4264 1108.7 66.4394C1114.59 64.6471 1120.47 62.8548 1126.39 61.1008H1126.43ZM1085.72 71.1155C1089.46 70.0623 1093.2 69.011 1096.94 67.9579C1099.47 67.3738 1101.96 66.7515 1104.46 66.1273C1105.04 65.9722 1105.62 65.8554 1106.17 65.7366C1102.47 66.8683 1098.77 67.9981 1095.11 69.1661C1091.95 69.8287 1088.83 70.4529 1085.68 71.1155H1085.72ZM1048.59 82.1814C1054.55 80.3106 1060.55 78.5183 1066.55 76.726C1071.73 75.5579 1076.95 74.4281 1082.17 73.3367C1076.21 75.2458 1070.29 77.2334 1064.37 79.1808C1059.07 80.1554 1053.81 81.1684 1048.55 82.1814C1048.55 82.1814 1048.51 82.1814 1048.47 82.1814C1048.47 82.1814 1048.51 82.1814 1048.55 82.1814H1048.59ZM1037.09 83.5064C1040.48 82.6888 1043.83 81.8692 1047.22 81.0899C1043.41 82.2981 1039.55 83.5064 1035.73 84.7147C1032.22 85.4155 1028.72 86.1566 1025.21 86.8574C1029.15 85.7276 1033.12 84.5979 1037.05 83.5064H1037.09ZM1007.05 92.1577C1012.47 90.9877 1017.92 89.7794 1023.38 88.6497C1017.3 90.6373 1011.3 92.6632 1005.3 94.691C999.768 95.704 994.236 96.717 988.704 97.7682C994.782 95.8591 1000.94 93.9883 1007.05 92.1577ZM977.64 98.898C981.263 98.042 984.924 97.1842 988.587 96.3263C984.574 97.5729 980.562 98.8596 976.587 100.146C972.809 100.886 969.029 101.665 965.29 102.444C969.38 101.236 973.51 100.068 977.64 98.9382V98.898ZM947.757 107.628C953.444 106.381 959.095 105.173 964.822 104.003C958.666 106.029 952.548 108.095 946.432 110.199C940.667 111.212 934.939 112.264 929.212 113.355C935.366 111.408 941.563 109.499 947.757 107.628ZM918.537 114.291C922.393 113.355 926.29 112.459 930.185 111.563C925.94 112.888 921.731 114.251 917.524 115.615C913.51 116.394 909.497 117.213 905.523 117.993C909.847 116.746 914.173 115.498 918.537 114.251V114.291ZM906.42 119.239C900.225 121.305 894.031 123.408 887.874 125.591C881.952 126.604 876.029 127.657 870.147 128.747C876.341 126.761 882.576 124.812 888.809 122.902C894.653 121.656 900.497 120.409 906.381 119.239H906.42ZM846.303 133.346C850.744 132.059 855.224 130.774 859.705 129.488C863.874 128.513 868.042 127.54 872.211 126.566C867.809 127.967 863.447 129.371 859.083 130.813C854.797 131.63 850.55 132.488 846.303 133.346ZM848.446 134.359C842.173 136.463 835.94 138.644 829.705 140.866C823.589 141.919 817.512 142.97 811.472 144.062C817.745 142.036 824.018 140.048 830.368 138.099C836.369 136.814 842.406 135.567 848.446 134.359ZM801.264 144.646C805.666 143.633 810.071 142.581 814.511 141.607C809.954 143.087 805.395 144.569 800.875 146.049C796.356 146.907 791.797 147.803 787.316 148.699C791.952 147.334 796.628 145.971 801.304 144.646H801.264ZM790.667 149.479C784.316 151.66 778.005 153.843 771.732 156.102C765.461 157.155 759.187 158.206 752.953 159.336C759.343 157.232 765.732 155.206 772.201 153.218C778.317 151.933 784.473 150.685 790.667 149.479ZM728.563 163.934C733.318 162.532 738.109 161.129 742.902 159.765C747.499 158.674 752.135 157.622 756.771 156.569C752.057 158.09 747.382 159.648 742.706 161.207C737.954 162.103 733.239 162.999 728.525 163.934H728.563ZM732.968 164.52C726.616 166.701 720.264 168.962 713.993 171.26C707.525 172.313 701.097 173.405 694.669 174.534C701.135 172.39 707.604 170.326 714.148 168.3C720.383 167.013 726.654 165.766 732.968 164.52ZM684.811 174.806C689.681 173.677 694.552 172.547 699.46 171.455C694.552 173.052 689.681 174.651 684.849 176.327C679.901 177.223 674.994 178.157 670.122 179.132C674.994 177.652 679.901 176.248 684.849 174.845L684.811 174.806ZM656.994 181.625L655.903 181.977L654.499 182.288C655.357 182.054 656.175 181.859 657.033 181.625H656.994ZM627.033 189.771C632.059 188.601 637.124 187.471 642.189 186.341C637.201 187.977 632.214 189.652 627.266 191.329C622.085 192.264 616.942 193.239 611.798 194.211C616.863 192.693 621.93 191.211 627.033 189.731V189.771ZM600.384 196.277C599.643 196.511 598.864 196.745 598.124 196.978L595.748 197.486C597.305 197.095 598.825 196.666 600.422 196.277H600.384ZM553.591 209.371C558.851 207.772 564.149 206.214 569.45 204.695C574.591 203.525 579.773 202.357 584.994 201.225C579.889 202.901 574.865 204.617 569.838 206.371C564.383 207.343 559.008 208.356 553.631 209.371H553.591ZM543.852 210.93C542.722 211.28 541.593 211.631 540.423 211.981C539.41 212.176 538.397 212.372 537.384 212.605C539.526 212.06 541.669 211.474 543.852 210.93ZM483.268 226.827C481.788 227.139 480.346 227.413 478.866 227.723C481.593 227.022 484.32 226.281 487.087 225.621C485.8 226.009 484.515 226.438 483.268 226.867V226.827ZM512.489 221.333C506.917 222.308 501.346 223.321 495.812 224.372C501.189 222.737 506.645 221.1 512.098 219.541C517.397 218.333 522.697 217.165 528.072 215.995C522.852 217.708 517.67 219.503 512.489 221.333ZM541.864 216.54C534.891 217.592 527.955 218.723 521.06 219.853C527.566 217.632 534.15 215.449 540.813 213.344C547.592 211.981 554.41 210.656 561.267 209.371C554.761 211.709 548.293 214.085 541.864 216.54ZM571.202 212.448C563.565 213.423 556.007 214.474 548.488 215.566C555.657 212.877 562.903 210.267 570.189 207.734C577.591 206.409 585.033 205.162 592.552 203.954C585.383 206.721 578.254 209.526 571.202 212.41V212.448ZM600.579 208.981C592.59 209.838 584.644 210.773 576.734 211.747C584.215 208.709 591.813 205.785 599.448 202.901C607.241 201.695 615.111 200.563 623.019 199.473C615.461 202.55 607.98 205.746 600.579 208.981ZM629.681 206.097C621.501 206.838 613.357 207.617 605.253 208.475C612.968 205.122 620.721 201.888 628.591 198.694C636.617 197.641 644.72 196.628 652.864 195.653C645.071 199.044 637.317 202.512 629.681 206.058V206.097ZM658.551 203.799C650.292 204.383 642.032 205.046 633.89 205.746C641.798 202.122 649.747 198.577 657.812 195.107C665.916 194.173 674.098 193.315 682.318 192.536C674.331 196.199 666.383 199.979 658.551 203.799ZM686.916 202.005C678.655 202.434 670.435 202.941 662.293 203.525C670.318 199.628 678.421 195.81 686.603 192.109C694.745 191.329 702.968 190.627 711.226 189.964C703.044 193.901 694.941 197.915 686.954 202.005H686.916ZM714.811 200.72C706.629 201.032 698.487 201.421 690.422 201.811C698.564 197.681 706.824 193.627 715.123 189.652C723.227 189.03 731.33 188.446 739.512 187.938C731.175 192.109 722.953 196.356 714.811 200.682V200.72ZM718.083 200.603C726.344 196.239 734.72 191.952 743.135 187.743C751.084 187.276 759.109 186.809 767.136 186.418C758.68 190.784 750.305 195.264 742.006 199.824C733.98 200.019 725.992 200.253 718.083 200.563V200.603ZM409.71 527.343C396.696 537.2 383.723 547.136 370.827 557.191C458.839 404.05 586.279 287.11 742.356 201.304C750.109 201.109 757.901 200.953 765.771 200.875C621.15 282.784 499.788 390.372 409.671 527.343H409.71ZM413.061 524.769C503.255 388.892 624.499 282.122 768.733 200.837C776.212 200.758 783.694 200.682 791.252 200.682C658.007 277.484 543.111 374.98 452.332 495.662C439.164 505.247 426.074 514.95 413.061 524.731V524.769ZM419.646 544.176C430.438 527.965 441.657 512.183 453.268 496.753C466.125 487.361 479.1 478.049 492.073 468.852C479.956 483.23 468.151 497.921 456.696 512.962C444.229 523.251 431.878 533.694 419.606 544.214L419.646 544.176ZM426.112 557.697C436.359 542.813 446.917 528.239 457.749 513.937C469.709 504.039 481.748 494.258 493.865 484.596C482.372 497.961 471.151 511.561 460.204 525.472C448.709 536.071 437.333 546.826 426.074 557.697H426.112ZM432.657 564.205C441.969 551.424 451.476 538.838 461.255 526.447C471.774 516.704 482.372 507.04 493.086 497.532C482.839 509.027 472.787 520.679 462.891 532.524C452.685 542.968 442.632 553.488 432.697 564.205H432.657ZM449.489 551.112C454.241 545.189 459.034 539.343 463.904 533.537C468.618 528.706 473.372 523.913 478.125 519.159C468.463 529.681 458.879 540.318 449.489 551.112ZM501.735 494.103C499.709 496.052 497.683 497.961 495.657 499.909C488.879 506.494 482.177 513.119 475.515 519.783C484.203 509.652 493.007 499.637 501.969 489.777C511.009 481.829 520.164 473.957 529.32 466.163C520.008 475.36 510.813 484.672 501.735 494.103ZM529.943 467.567C533.215 464.333 536.488 461.099 539.8 457.903C541.359 456.382 542.956 454.902 544.515 453.382C548.566 450.031 552.656 446.68 556.708 443.329C547.708 451.318 538.787 459.383 529.943 467.567ZM588.384 415.973C578.449 423.807 568.592 431.756 558.813 439.783C568.28 430.898 577.863 422.132 587.526 413.48C596.878 406.7 606.266 399.958 615.695 393.296C606.54 400.777 597.462 408.337 588.422 415.973H588.384ZM620.681 390.996C625.045 387.45 629.488 383.944 633.89 380.436C637.241 378.098 640.592 375.838 643.941 373.5C636.149 379.268 628.396 385.112 620.643 390.958L620.681 390.996ZM679.785 347.508C670.239 353.86 660.734 360.29 651.267 366.758C661.046 359.16 670.902 351.638 680.838 344.236C690.267 338.468 699.655 332.701 709.122 327.012C699.305 333.754 689.526 340.611 679.785 347.508ZM737.058 310.412C732.031 313.567 727.045 316.725 722.057 319.921C724.512 318.244 726.966 316.608 729.421 314.971C731.993 313.451 734.524 311.932 737.096 310.412H737.058ZM778.472 284.694C769.317 289.915 760.2 295.254 751.084 300.554C803.135 266.38 856.628 234.193 911.446 203.916C914.135 204.071 916.783 204.188 919.471 204.343C871.705 229.868 824.641 256.637 778.472 284.694ZM828.07 256.911C828.07 256.911 827.953 256.949 827.913 256.988C827.913 256.988 828.03 256.949 828.07 256.911C859.121 238.869 890.484 221.412 922.198 204.46C923.561 204.538 924.927 204.617 926.328 204.695C893.328 221.605 860.563 239.024 828.07 256.911ZM928.821 203.408L924.574 203.175C935.328 197.445 946.12 191.797 956.95 186.184C958.821 186.263 960.692 186.341 962.523 186.418C951.263 192.03 940.004 197.719 928.821 203.447V203.408ZM965.173 185.095C963.264 185.016 961.393 184.938 959.522 184.859C970.314 179.287 981.106 173.793 991.977 168.338C994.276 168.376 996.612 168.455 998.912 168.493C987.653 173.948 976.392 179.482 965.173 185.095ZM1001.72 167.17C999.379 167.091 997.003 167.051 994.627 166.975C1005.46 161.557 1016.29 156.219 1027.16 150.959C1029.93 150.959 1032.65 150.997 1035.46 151.037C1024.2 156.376 1012.94 161.753 1001.72 167.17ZM1038.42 149.634C1035.65 149.634 1032.89 149.555 1030.12 149.555C1040.95 144.295 1051.82 139.152 1062.69 134.009C1065.85 134.009 1069 133.968 1072.16 133.968C1060.9 139.152 1049.64 144.374 1038.46 149.634H1038.42ZM1075.27 132.526C1072.12 132.526 1068.96 132.526 1065.77 132.567C1076.6 127.5 1087.43 122.474 1098.34 117.526C1101.85 117.447 1105.39 117.369 1108.94 117.292C1097.68 122.318 1086.5 127.383 1075.27 132.526ZM1112.29 115.81C1108.74 115.888 1105.2 115.967 1101.65 116.043C1112.44 111.134 1123.27 106.303 1134.14 101.51C1138.04 101.353 1141.94 101.198 1145.83 101.043C1134.65 105.912 1123.47 110.822 1112.29 115.772V115.81ZM1149.42 99.5222C1145.52 99.639 1141.63 99.8343 1137.69 99.9894C1148.44 95.2751 1159.23 90.599 1170.03 85.9995C1174.27 85.7659 1178.52 85.494 1182.77 85.2604C1171.63 89.9748 1160.52 94.7293 1149.42 99.5222ZM1186.66 83.6232C1182.42 83.8568 1178.17 84.0904 1173.96 84.3241C1184.64 79.805 1195.39 75.3243 1206.1 70.8819C1210.66 70.5314 1215.22 70.1791 1219.78 69.8689C1208.72 74.3879 1197.65 78.9855 1186.62 83.6232H1186.66ZM1224.03 68.1532C1219.47 68.4653 1214.91 68.7774 1210.35 69.1279C1220.95 64.7639 1231.58 60.4766 1242.22 56.2294C1247.09 55.7622 1251.96 55.3333 1256.83 54.9044C1245.88 59.2683 1234.94 63.6724 1224.03 68.1149V68.1532ZM1261.47 53.1121C1256.6 53.541 1251.77 53.9699 1246.94 54.3989C1257.42 50.2283 1267.94 46.1363 1278.45 42.0845C1283.6 41.5004 1288.74 40.9547 1293.88 40.409C1283.05 44.5776 1272.26 48.8267 1261.51 53.0738L1261.47 53.1121ZM1330.82 26.3808C1320.18 30.3561 1309.51 34.4079 1298.91 38.4999C1293.81 39.0054 1288.66 39.5511 1283.56 40.0969C1293.92 36.1217 1304.29 32.2249 1314.65 28.4067C1320.03 27.7059 1325.4 27.0434 1330.82 26.3808ZM1326.18 18.8995C1332.06 17.9632 1337.99 17.067 1343.91 16.2111C1334.05 19.7555 1324.19 23.3803 1314.38 27.0051C1308.69 27.7442 1303 28.4852 1297.31 29.2646C1306.94 25.7566 1316.56 22.329 1326.18 18.8995ZM1318.47 20.1461C1309.2 23.4588 1299.92 26.8098 1290.69 30.199C1284.65 31.0186 1278.65 31.9147 1272.69 32.7707C1281.77 29.5365 1290.88 26.3425 1300 23.185C1306.16 22.1337 1312.31 21.1208 1318.51 20.1461H1318.47ZM1323.77 13.5992C1315.7 16.2877 1307.67 19.0163 1299.65 21.7833C1293.81 22.756 1287.96 23.769 1282.16 24.8221C1290.06 22.2103 1298.01 19.6004 1305.96 17.067C1311.88 15.899 1317.8 14.729 1323.77 13.5992ZM1305.61 15.7037C1301.33 16.5615 1297.04 17.4174 1292.75 18.2753C1298.44 16.5998 1304.13 14.9243 1309.82 13.2488C1314.06 12.2742 1318.35 11.3014 1322.6 10.3651C1316.91 12.1191 1311.26 13.9114 1305.61 15.7037ZM1346.44 3.07908C1343.95 3.81821 1341.49 4.55924 1339.04 5.30029C1337.17 5.689 1335.3 6.11794 1333.47 6.50665C1336.35 5.68901 1339.27 4.90967 1342.16 4.09203C1343.6 3.74161 1345.04 3.38927 1346.48 3.03886L1346.44 3.07908Z" fill="#B3B3B3"/>
</svg>