<svg width="16" height="16" viewBox="0 0 16 16" fill="none" xmlns="http://www.w3.org/2000/svg">
<path d="M6.66667 8.66667C6.95298 9.04942 7.31824 9.36611 7.73657 9.59529C8.15491 9.82447 8.61654 9.96073 9.09109 9.99489C9.56564 10.029 10.0424 9.96031 10.4889 9.79329C10.9354 9.62627 11.3415 9.36488 11.68 9.02667L13.68 7.02667C14.2689 6.41142 14.5939 5.58825 14.5848 4.73395C14.5758 3.87965 14.2335 3.06369 13.6318 2.46115C13.0301 1.8586 12.2147 1.51492 11.3604 1.50451C10.5061 1.4941 9.68238 1.81773 9.06667 2.40667L7.83333 3.63333" stroke="currentColor" stroke-width="1.5" stroke-linecap="round" stroke-linejoin="round"/>
<path d="M9.33333 7.33333C9.04702 6.95058 8.68176 6.63389 8.26343 6.40471C7.84509 6.17553 7.38346 6.03927 6.90891 6.00511C6.43436 5.97096 5.95756 6.03969 5.51107 6.20671C5.06458 6.37373 4.65854 6.63512 4.32 6.97333L2.32 8.97333C1.7311 9.58858 1.40608 10.4118 1.41515 11.2661C1.42423 12.1204 1.76653 12.9363 2.36824 13.5388C2.96994 14.1414 3.78529 14.4851 4.63959 14.4955C5.49389 14.5059 6.31762 14.1823 6.93333 13.5933L8.16 12.3667" stroke="currentColor" stroke-width="1.5" stroke-linecap="round" stroke-linejoin="round"/>
</svg>

