<svg width="16" height="16" viewBox="0 0 16 16" fill="none" xmlns="http://www.w3.org/2000/svg">
<path d="M14.6667 11.28V13.28C14.6675 13.4657 14.6294 13.6494 14.555 13.8195C14.4807 13.9897 14.3716 14.1424 14.2348 14.2679C14.0979 14.3934 13.9364 14.489 13.7605 14.5485C13.5847 14.608 13.3983 14.63 13.2133 14.6133C11.1619 14.3904 9.19137 13.6894 7.46 12.5667C5.84919 11.5431 4.48353 10.1774 3.46 8.56665C2.33334 6.82745 1.6322 4.84731 1.41333 2.78665C1.39667 2.60229 1.41854 2.41649 1.4777 2.24106C1.53686 2.06562 1.63192 1.90444 1.75669 1.76773C1.88146 1.63102 2.03334 1.52179 2.20281 1.44712C2.37228 1.37245 2.55534 1.33385 2.74 1.33331H4.74C5.06353 1.33013 5.37717 1.4447 5.62248 1.65568C5.86779 1.86666 6.02804 2.15963 6.07333 2.47998C6.15779 3.12003 6.31434 3.74847 6.54 4.35331C6.62974 4.59193 6.64915 4.85127 6.59597 5.10058C6.5428 5.34989 6.41928 5.57872 6.24 5.75998L5.39333 6.60665C6.34239 8.27568 7.72431 9.6576 9.39333 10.6067L10.24 9.75998C10.4212 9.5807 10.6501 9.45718 10.8994 9.40401C11.1487 9.35083 11.4081 9.37024 11.6467 9.45998C12.2515 9.68564 12.88 9.84219 13.52 9.92665C13.8439 9.97234 14.1396 10.1355 14.3511 10.385C14.5625 10.6345 14.6748 10.953 14.6667 11.28Z" stroke="currentColor" stroke-width="1.5" stroke-linecap="round" stroke-linejoin="round"/>
</svg>

